<?xml version="1.0" encoding="UTF-8" standalone="no"?>
<svg
   xmlns:dc="http://purl.org/dc/elements/1.1/"
   xmlns:cc="http://creativecommons.org/ns#"
   xmlns:rdf="http://www.w3.org/1999/02/22-rdf-syntax-ns#"
   xmlns:svg="http://www.w3.org/2000/svg"
   xmlns="http://www.w3.org/2000/svg"
   xmlns:sodipodi="http://sodipodi.sourceforge.net/DTD/sodipodi-0.dtd"
   xmlns:inkscape="http://www.inkscape.org/namespaces/inkscape"
   version="1.1"
   id="svg2"
   xml:space="preserve"
   width="582.98669"
   height="602.34668"
   viewBox="0 0 582.98669 602.34668"
   sodipodi:docname="3249187.eps"><metadata
     id="metadata8"><rdf:RDF><cc:Work
         rdf:about=""><dc:format>image/svg+xml</dc:format><dc:type
           rdf:resource="http://purl.org/dc/dcmitype/StillImage" /></cc:Work></rdf:RDF></metadata><defs
     id="defs6"><clipPath
       clipPathUnits="userSpaceOnUse"
       id="clipPath100"><path
         d="m 2054.76,2450.53 c -3.4,0 -6.46,0.18 -9.14,0.51 -23.98,2.96 -147.03,131.32 -234.02,225.02 l 4.55,291.37 c -0.04,60.62 -7.94,126.89 -24.93,190.2 146.54,-160.28 417.41,-469.03 417.44,-561.43 0,-1.12 -0.04,-2.21 -0.12,-3.27 -8.5,-111.92 -109.2,-142.4 -153.78,-142.4"
         id="path98" /></clipPath><clipPath
       clipPathUnits="userSpaceOnUse"
       id="clipPath284"><path
         d="m 3391.58,1562.56 c -2.21,0 -3.88,2.13 -5.12,4.03 -15.75,24.18 -31.51,48.36 -47.26,72.54 -23.78,36.49 -47.56,72.97 -71.33,109.46 l 27.33,15.49 146.11,-116.08 c -14.95,-27.08 -29.9,-54.16 -44.86,-81.23 -1.04,-1.89 -2.42,-4.02 -4.58,-4.2 -0.1,0 -0.19,-0.01 -0.29,-0.01"
         id="path282" /></clipPath></defs><sodipodi:namedview
     pagecolor="#ffffff"
     bordercolor="#666666"
     borderopacity="1"
     objecttolerance="10"
     gridtolerance="10"
     guidetolerance="10"
     inkscape:pageopacity="0"
     inkscape:pageshadow="2"
     inkscape:window-width="640"
     inkscape:window-height="480"
     id="namedview4" /><g
     id="g10"
     inkscape:groupmode="layer"
     inkscape:label="ink_ext_XXXXXX"
     transform="matrix(1.3333333,0,0,-1.3333333,0,602.34667)"><g
       id="g12"
       transform="scale(0.1)"><path
         d="m 2738.82,3442.65 c -7.18,-0.45 -13.82,-4.92 -16.72,-12.04 l -36.2,-89.21 c -2.28,-5.61 -1.79,-11.97 1.3,-17.17 3.1,-5.2 8.46,-8.65 14.48,-9.31 15.79,-1.75 30.72,-10.65 40.96,-24.42 9.43,-12.66 13.4,-27.78 10.89,-41.48 -2.49,-13.66 -11.58,-26.51 -24.93,-35.29 -14.29,-9.38 -31.73,-12.93 -46.71,-9.45 -30.59,7.1 -54.3,40.92 -51.75,73.87 0.82,10.65 -7.14,19.94 -17.78,20.76 -10.83,0.8 -19.94,-7.14 -20.77,-17.78 -4.01,-51.79 32.59,-103.16 81.58,-114.52 25.4,-5.88 53.38,-0.5 76.66,14.81 22.14,14.54 37.34,36.65 41.74,60.65 4.42,24.21 -2.1,50.28 -17.91,71.52 -11.43,15.35 -26.66,27 -43.63,33.73 l 27.91,68.76 c 4.01,9.89 -0.76,21.17 -10.65,25.18 -2.78,1.12 -5.66,1.56 -8.47,1.39"
         style="fill:#e3e3e2;fill-opacity:1;fill-rule:nonzero;stroke:none"
         id="path14" /><path
         d="m 2778.72,3470.14 c 3.48,8.01 -0.18,17.33 -8.19,20.82 -8,3.49 -17.32,-0.17 -20.81,-8.18 -3.49,-8 0.17,-17.32 8.18,-20.82 8,-3.49 17.32,0.18 20.82,8.18"
         style="fill:#e3e3e2;fill-opacity:1;fill-rule:nonzero;stroke:none"
         id="path16" /><path
         d="m 2179.09,4143.95 c 2.88,6.55 1.97,14.44 -2.99,20.25 l -62.16,72.66 c -3.9,4.57 -9.73,7.05 -15.73,6.69 -6.01,-0.36 -11.49,-3.51 -14.83,-8.52 -8.75,-13.12 -23.41,-22.23 -40.23,-24.98 -15.48,-2.53 -30.63,0.86 -41.57,9.34 -10.9,8.42 -18.1,22.31 -19.74,38.09 -1.76,16.89 3.07,33.89 12.99,45.52 20.22,23.74 60.88,29.2 88.78,11.92 9.01,-5.59 20.84,-2.81 26.43,6.2 5.65,9.19 2.81,20.85 -6.21,26.44 -43.84,27.17 -105.86,18.35 -138.25,-19.68 -16.78,-19.72 -24.81,-46.85 -21.94,-74.37 2.72,-26.17 15.28,-49.67 34.45,-64.51 19.33,-14.96 45.3,-21.1 71.26,-16.85 18.76,3.06 35.98,11.19 49.67,23.08 l 47.91,-56 c 6.89,-8.06 19.01,-9 27.07,-2.1 2.26,1.93 3.96,4.27 5.09,6.82"
         style="fill:#e3e3e2;fill-opacity:1;fill-rule:nonzero;stroke:none"
         id="path18" /><path
         d="m 2185.13,4096.22 c 5.47,-6.74 15.36,-7.76 22.09,-2.29 6.74,5.46 7.76,15.36 2.29,22.09 -5.47,6.73 -15.36,7.76 -22.09,2.29 -6.74,-5.47 -7.76,-15.36 -2.29,-22.09"
         style="fill:#e3e3e2;fill-opacity:1;fill-rule:nonzero;stroke:none"
         id="path20" /><path
         d="M 4350.6,2803.5 H 3462.26 V 4091.11 H 4350.6 V 2803.5"
         style="fill:#e3e3e2;fill-opacity:1;fill-rule:nonzero;stroke:none"
         id="path22" /><path
         d="M 4306.1,2803.5 H 3417.76 V 4091.11 H 4306.1 V 2803.5"
         style="fill:#f8f8f9;fill-opacity:1;fill-rule:nonzero;stroke:none"
         id="path24" /><path
         d="m 4195.73,2942.96 h -667.6 v 1008.69 h 667.6 V 2942.96"
         style="fill:#ffffff;fill-opacity:1;fill-rule:nonzero;stroke:none"
         id="path26" /><path
         d="m 4195.73,2942.96 c 0,0 -0.09,1.7 -0.13,4.93 -0.03,3.33 -0.08,8.08 -0.13,14.3 -0.06,12.67 -0.15,31.23 -0.27,55.33 -0.14,48.34 -0.34,118.79 -0.59,207.78 -0.28,177.87 -0.65,429.74 -1.1,726.35 l 2.22,-2.22 c -203.97,-0.06 -429.97,-0.13 -667.52,-0.2 h -0.08 l 2.41,2.42 c -0.18,-380.52 -0.35,-731.37 -0.49,-1008.69 l -1.92,1.92 c 203.31,-0.43 369.96,-0.77 485.93,-1.01 58.01,-0.22 103.3,-0.38 134.25,-0.49 15.38,-0.1 27.16,-0.17 35.23,-0.22 7.98,-0.07 12.19,-0.2 12.19,-0.2 0,0 -3.93,-0.15 -11.78,-0.21 -8,-0.05 -19.66,-0.13 -34.88,-0.22 -30.84,-0.11 -76,-0.28 -133.82,-0.49 -116.25,-0.24 -283.31,-0.59 -487.12,-1.01 h -1.92 v 1.93 c -0.14,277.32 -0.31,628.17 -0.49,1008.69 l -0.01,2.41 h 2.42 0.08 c 237.55,-0.07 463.55,-0.14 667.52,-0.2 h 2.22 v -2.21 c -0.45,-297.2 -0.82,-549.58 -1.1,-727.8 -0.25,-88.78 -0.45,-159.06 -0.59,-207.29 -0.12,-23.9 -0.21,-42.31 -0.27,-54.88 -0.06,-6.11 -0.1,-10.78 -0.12,-14.05 -0.05,-3.14 -0.14,-4.67 -0.14,-4.67"
         style="fill:#e3e3e2;fill-opacity:1;fill-rule:nonzero;stroke:none"
         id="path28" /><path
         d="m 4308.59,4091.11 c 0.52,-0.41 -5.51,-9.21 -15.83,-23.01 -10.32,-13.8 -24.97,-32.57 -41.68,-52.87 -16.73,-20.3 -32.34,-38.27 -43.91,-51.04 -11.57,-12.78 -19.05,-20.39 -19.55,-19.95 -0.5,0.44 6.07,8.84 16.96,22.17 11.91,14.45 26.56,32.23 42.77,51.89 16.19,19.67 30.83,37.46 42.72,51.91 11,13.25 17.98,21.31 18.52,20.9"
         style="fill:#e3e3e2;fill-opacity:1;fill-rule:nonzero;stroke:none"
         id="path30" /><path
         d="m 4199.13,2946.2 c 33.16,-52.72 72.3,-101.68 116.44,-145.62"
         style="fill:#ffffff;fill-opacity:1;fill-rule:nonzero;stroke:none"
         id="path32" /><path
         d="m 4315.57,2800.58 c -0.44,-0.45 -8.37,6.43 -20.3,18.46 -11.93,12.03 -27.75,29.35 -43.93,49.55 -16.15,20.22 -29.56,39.46 -38.66,53.75 -9.11,14.29 -14.08,23.54 -13.55,23.86 0.6,0.38 6.58,-8.21 16.38,-21.95 9.79,-13.74 23.55,-32.54 39.61,-52.65 16.08,-20.08 31.39,-37.64 42.64,-50.21 11.25,-12.58 18.31,-20.31 17.81,-20.81"
         style="fill:#e3e3e2;fill-opacity:1;fill-rule:nonzero;stroke:none"
         id="path34" /><path
         d="m 3417.63,2804.52 c 38.79,47.85 77.58,95.71 116.36,143.56"
         style="fill:#ffffff;fill-opacity:1;fill-rule:nonzero;stroke:none"
         id="path36" /><path
         d="m 3533.99,2948.08 c 1.04,-0.84 -24.17,-33.66 -56.3,-73.3 -32.14,-39.65 -59.02,-71.1 -60.06,-70.26 -1.03,0.84 24.17,33.65 56.31,73.3 32.13,39.64 59.02,71.1 60.05,70.26"
         style="fill:#e3e3e2;fill-opacity:1;fill-rule:nonzero;stroke:none"
         id="path38" /><path
         d="m 3417.76,4091.11 c 1.04,0.82 26.34,-29.41 56.47,-67.52 30.16,-38.13 53.74,-69.69 52.7,-70.52 -1.04,-0.83 -26.33,29.4 -56.48,67.52 -30.14,38.11 -53.73,69.68 -52.69,70.52"
         style="fill:#e3e3e2;fill-opacity:1;fill-rule:nonzero;stroke:none"
         id="path40" /><path
         d="M 3987.73,3112.15 H 3764.2 v 634.69 h 223.53 v -634.69"
         style="fill:#e3e3e2;fill-opacity:1;fill-rule:nonzero;stroke:none"
         id="path42" /><path
         d="m 928.16,3680.87 -71.062,-0.38 -1.899,353.61 71.067,0.38 1.894,-353.61"
         style="fill:#e3e3e2;fill-opacity:1;fill-rule:nonzero;stroke:none"
         id="path44" /><path
         d="m 424.621,3838.34 -184.035,-0.98 -1.043,195.21 184.031,0.99 1.047,-195.22"
         style="fill:#eeeeee;fill-opacity:1;fill-rule:nonzero;stroke:none"
         id="path46" /><path
         d="m 607.777,3839.32 -184.031,-0.98 -1.047,195.21 184.035,0.99 1.043,-195.22"
         style="fill:#f8f8f9;fill-opacity:1;fill-rule:nonzero;stroke:none"
         id="path48" /><path
         d="m 239.828,3978.66 c 122.301,-1.01 244.91,-0.29 367.195,1.69 2.52,0.04 2.5,3.9 -0.019,3.91 -122.305,0.68 -244.906,0.08 -367.188,-2.25 -2.16,-0.04 -2.144,-3.33 0.012,-3.35"
         style="fill:#e3e3e2;fill-opacity:1;fill-rule:nonzero;stroke:none"
         id="path50" /><path
         d="m 460.012,3682.51 -334.356,-1.79 -0.851,159.08 334.351,1.8 0.856,-159.09"
         style="fill:#eeeeee;fill-opacity:1;fill-rule:nonzero;stroke:none"
         id="path52" /><path
         d="m 792.785,3684.29 -334.355,-1.79 -0.856,159.09 334.356,1.79 0.855,-159.09"
         style="fill:#f8f8f9;fill-opacity:1;fill-rule:nonzero;stroke:none"
         id="path54" /><path
         d="m 125.039,3795.56 c 222.121,-2.52 445.02,-0.26 667.129,3.3 2.516,0.04 2.5,3.89 -0.02,3.91 -222.132,1.17 -445.046,1.04 -667.128,-3.86 -2.153,-0.05 -2.141,-3.33 0.019,-3.35"
         style="fill:#e3e3e2;fill-opacity:1;fill-rule:nonzero;stroke:none"
         id="path56" /><path
         d="M 1295.4,3623.72 H 0 v 57 h 1295.4 v -57"
         style="fill:#e3e3e2;fill-opacity:1;fill-rule:nonzero;stroke:none"
         id="path58" /><path
         d="m 264.676,3458.83 h -52.59 v 194.49 h 52.59 v -194.49"
         style="fill:#e3e3e2;fill-opacity:1;fill-rule:nonzero;stroke:none"
         id="path60" /><path
         d="m 1049.68,3458.83 h -52.582 v 194.49 h 52.582 v -194.49"
         style="fill:#e3e3e2;fill-opacity:1;fill-rule:nonzero;stroke:none"
         id="path62" /><path
         d="m 998.219,3680 -71.067,-0.38 -2.601,486.34 71.066,0.38 2.602,-486.34"
         style="fill:#eeeeee;fill-opacity:1;fill-rule:nonzero;stroke:none"
         id="path64" /><path
         d="m 1108.77,3681.69 -110.422,-0.6 -2.118,394.13 110.43,0.59 2.11,-394.12"
         style="fill:#f8f8f9;fill-opacity:1;fill-rule:nonzero;stroke:none"
         id="path66" /><path
         d="m 1105.91,3999.88 c 0,-1.06 -24.72,-1.91 -55.21,-1.91 -30.5,0 -55.216,0.85 -55.216,1.91 0,1.06 24.716,1.91 55.216,1.91 30.49,0 55.21,-0.85 55.21,-1.91"
         style="fill:#e3e3e2;fill-opacity:1;fill-rule:nonzero;stroke:none"
         id="path68" /><path
         d="m 1105.91,4016.44 c 0,-1.06 -24.72,-1.91 -55.21,-1.91 -30.5,0 -55.216,0.85 -55.216,1.91 0,1.06 24.716,1.91 55.216,1.91 30.49,0 55.21,-0.85 55.21,-1.91"
         style="fill:#e3e3e2;fill-opacity:1;fill-rule:nonzero;stroke:none"
         id="path70" /><path
         d="m 1105.91,3740.98 c 0,-1.05 -24.72,-1.91 -55.21,-1.91 -30.5,0 -55.216,0.86 -55.216,1.91 0,1.06 24.716,1.92 55.216,1.92 30.49,0 55.21,-0.86 55.21,-1.92"
         style="fill:#e3e3e2;fill-opacity:1;fill-rule:nonzero;stroke:none"
         id="path72" /><path
         d="m 1105.91,3757.54 c 0,-1.06 -24.72,-1.91 -55.21,-1.91 -30.5,0 -55.216,0.85 -55.216,1.91 0,1.06 24.716,1.91 55.216,1.91 30.49,0 55.21,-0.85 55.21,-1.91"
         style="fill:#e3e3e2;fill-opacity:1;fill-rule:nonzero;stroke:none"
         id="path74" /><path
         d="m 1052.48,3793.67 c -1.06,0 -1.92,39.76 -1.92,88.8 0,49.06 0.86,88.81 1.92,88.81 1.06,0 1.91,-39.75 1.91,-88.81 0,-49.04 -0.85,-88.8 -1.91,-88.8"
         style="fill:#e3e3e2;fill-opacity:1;fill-rule:nonzero;stroke:none"
         id="path76" /><path
         d="m 1227.31,3681.54 h -120.2 v 297.49 h 120.2 v -297.49"
         style="fill:#eeeeee;fill-opacity:1;fill-rule:nonzero;stroke:none"
         id="path78" /><path
         d="m 979.465,4083.31 c 0,-11.28 -9.145,-20.42 -20.426,-20.42 -11.285,0 -20.43,9.14 -20.43,20.42 0,11.28 9.145,20.43 20.43,20.43 11.281,0 20.426,-9.15 20.426,-20.43"
         style="fill:#e3e3e2;fill-opacity:1;fill-rule:nonzero;stroke:none"
         id="path80" /><path
         d="m 965.352,3737.81 h -12.625 v 289.33 h 12.625 v -289.33"
         style="fill:#e3e3e2;fill-opacity:1;fill-rule:nonzero;stroke:none"
         id="path82" /><path
         d="m 4372.36,6.55078 c 0,-1.4414 -958.18,-2.60937 -2139.89,-2.60937 -1182.13,0 -2140.1067,1.16797 -2140.1067,2.60937 0,1.42969 957.9767,2.60938 2140.1067,2.60938 1181.71,0 2139.89,-1.17969 2139.89,-2.60938"
         style="fill:#1d2a30;fill-opacity:1;fill-rule:nonzero;stroke:none"
         id="path84" /><path
         d="m 575.031,2308.76 h 2902.06 v 92.9297 H 575.031 Z"
         style="fill:#e3e3e2;fill-opacity:1;fill-rule:nonzero;stroke:none"
         id="path86" /><path
         d="M 838.387,1.80078 744.172,2.14063 V 2321.03 h 94.215 V 1.80078"
         style="fill:#e3e3e2;fill-opacity:1;fill-rule:nonzero;stroke:none"
         id="path88" /><path
         d="m 3339.2,2.01953 h -95.18 l 0.96,2319.01047 h 94.22 V 2.01953"
         style="fill:#e3e3e2;fill-opacity:1;fill-rule:nonzero;stroke:none"
         id="path90" /><path
         d="m 1699.65,3256.07 c 0,0 518.04,-542.7 508.89,-663.14 -9.15,-120.44 -125.06,-146.56 -162.92,-141.89 -37.86,4.67 -322.62,321.86 -322.62,321.86 l -23.35,483.17"
         style="fill:#f03658;fill-opacity:1;fill-rule:nonzero;stroke:none"
         id="path92" /><g
         id="g94"><g
           id="g96"
           clip-path="url(#clipPath100)"><path
             d="m 1791.22,2450.53 h 417.441 v 707.098 H 1791.22 Z"
             style="fill:#a02232;fill-opacity:1;fill-rule:nonzero;stroke:none"
             id="path102" /></g></g><path
         d="m 1975.71,574.93 140.42,-469.969 157.87,85.719 -89.69,430.25 -208.6,-46"
         style="fill:#f9ad95;fill-opacity:1;fill-rule:nonzero;stroke:none"
         id="path104" /><path
         d="m 2254.62,397.48 48.36,-222.429 c 0,0 242.34,-25.551 255.28,-65.789 L 2130.34,0 l -89.58,343.48 213.86,54"
         style="fill:#f03658;fill-opacity:1;fill-rule:nonzero;stroke:none"
         id="path106" /><path
         d="m 2165.93,159.801 c -7.7,-4.379 -11.05,-15.153 -6.99,-23.031 4.06,-7.879 14.98,-11.372 22.77,-7.122 7.77,4.231 12.18,17.051 7.27,24.422 -4.92,7.371 -17.97,10.77 -24.5,4.782"
         style="fill:#e3e3e2;fill-opacity:1;fill-rule:nonzero;stroke:none"
         id="path108" /><path
         d="m 2558.26,109.262 c -1.87,5.816 -8.53,11.32 -18.55,16.488 6.18,-1.738 17.62,-6.32 18.55,-16.488"
         style="fill:#969796;fill-opacity:1;fill-rule:nonzero;stroke:none"
         id="path110" /><path
         d="m 2130.34,0 v 0 l -7.67,34.9805 413.15,91.6795 c 0,0 1.57,-0.262 3.89,-0.91 10.02,-5.168 16.68,-10.672 18.55,-16.488 v 0 L 2166.21,9.16016 2145.8,3.94141 2130.34,0"
         style="fill:#a02232;fill-opacity:1;fill-rule:nonzero;stroke:none"
         id="path112" /><path
         d="m 2309.36,178.988 c 0.47,-2.109 -9.73,-5.718 -18.3,-15.066 -8.82,-9.121 -11.81,-19.524 -13.93,-19.184 -2.04,-0.09 -2.11,13.203 8.46,24.332 10.47,11.219 23.73,11.95 23.77,9.918"
         style="fill:#1d2a30;fill-opacity:1;fill-rule:nonzero;stroke:none"
         id="path114" /><path
         d="m 2358.99,171.891 c 1,-1.903 -7.15,-7.762 -11.99,-18.422 -5.16,-10.5 -4.5,-20.508 -6.61,-20.949 -1.88,-0.829 -6.45,11.031 -0.18,24.16 6.15,13.179 18.22,17.191 18.78,15.211"
         style="fill:#1d2a30;fill-opacity:1;fill-rule:nonzero;stroke:none"
         id="path116" /><path
         d="m 2398.19,124.68 c -1.78,-0.93 -7.35,8.769 -4.91,21.59 2.35,12.832 11.05,19.859 12.38,18.339 1.62,-1.418 -3.15,-9.168 -5,-19.73 -2.09,-10.5 -0.44,-19.457 -2.47,-20.199"
         style="fill:#1d2a30;fill-opacity:1;fill-rule:nonzero;stroke:none"
         id="path118" /><path
         d="m 2292.72,228.461 c -0.39,-2.133 -10.71,-1.699 -22.32,-5.5 -11.68,-3.59 -19.87,-9.902 -21.41,-8.379 -1.59,1.199 5.4,11.219 19.14,15.52 13.69,4.418 25.2,0.269 24.59,-1.641"
         style="fill:#1d2a30;fill-opacity:1;fill-rule:nonzero;stroke:none"
         id="path120" /><path
         d="m 2282.14,273.16 c 0.24,-0.859 -7.69,-4.262 -21.47,-5.359 -6.86,-0.551 -15.14,-0.371 -24.18,1.16 -4.51,0.769 -9.21,1.879 -13.97,3.391 -2.3,0.757 -4.96,1.449 -7.76,3.378 -2.87,1.59 -5.6,6.801 -3.8,10.879 1.36,3.852 4.87,6.25 7.94,7.11 3.13,0.91 5.85,0.929 8.32,0.941 5.06,0.059 9.93,-0.379 14.49,-1.172 9.13,-1.629 16.97,-4.636 23.07,-7.918 12.28,-6.66 17.66,-13.601 17.05,-14.191 -0.77,-0.918 -7.27,4.383 -19.31,9.391 -6,2.492 -13.44,4.742 -21.86,5.89 -4.22,0.539 -8.68,0.801 -13.28,0.649 -4.83,0.031 -8.7,-0.918 -9.35,-3.227 -0.22,-0.883 -0.2,-1.203 1.09,-2.293 1.29,-0.957 3.43,-1.699 5.7,-2.457 4.41,-1.5 8.77,-2.672 12.97,-3.582 8.41,-1.801 16.19,-2.5 22.74,-2.648 13.14,-0.293 21.35,1.199 21.61,0.058"
         style="fill:#1d2a30;fill-opacity:1;fill-rule:nonzero;stroke:none"
         id="path122" /><path
         d="m 2280.17,269.469 c -0.65,-0.52 -6.71,5.922 -10.94,19.261 -2.07,6.61 -3.44,14.93 -3.06,24.211 0.22,4.618 0.89,9.481 2.14,14.399 1.42,4.859 3.03,11.308 10.91,14.308 4.18,1.243 8.55,-1.168 10.47,-3.687 2.15,-2.531 3.07,-4.949 4.2,-7.301 2.07,-4.789 3.23,-9.719 3.7,-14.422 0.99,-9.457 -0.81,-17.988 -3.49,-24.488 -5.54,-13.219 -13.62,-17.941 -13.98,-17.281 -0.95,0.883 5.3,6.769 8.97,19.062 1.81,6.059 2.85,13.699 1.64,21.867 -0.59,4.071 -1.73,8.25 -3.56,12.282 -1.82,4.379 -4.47,7.609 -6.05,6.711 -2.14,-0.512 -4.88,-4.86 -5.7,-8.93 -1.22,-4.402 -1.97,-8.77 -2.35,-12.973 -0.7,-8.418 0.01,-16.129 1.31,-22.449 2.62,-12.711 6.85,-19.969 5.79,-20.57"
         style="fill:#1d2a30;fill-opacity:1;fill-rule:nonzero;stroke:none"
         id="path124" /><path
         d="m 1594.33,1914.99 c 5.2,-20.8 372.05,-1517.51 372.05,-1517.51 L 2299.51,498.039 1985,2014.06 1594.33,1914.99"
         style="fill:#1d2a30;fill-opacity:1;fill-rule:nonzero;stroke:none"
         id="path126" /><path
         d="m 1545.3,3827.2 -58.21,-447.19 c -9.91,-76.05 45.85,-144.9 122.29,-151.04 71.33,-5.72 134.62,45.63 143.78,116.61 4.35,33.66 8.05,61.74 8.72,65.16 0,0 115.24,-4.11 138.12,107.49 11.07,53.93 24.8,166.88 36.05,269.2 12.08,109.88 -62.4,210.59 -170.96,231.45 l -10.79,2.08 c -117.7,15.58 -196.68,-75.68 -209,-193.76"
         style="fill:#f9ad95;fill-opacity:1;fill-rule:nonzero;stroke:none"
         id="path128" /><path
         d="m 1762.37,3412.32 c 0,0 -71.8,7.84 -137.87,69.49 0,0 19,-87.14 132.56,-98.52 l 5.31,29.03"
         style="fill:#f6865e;fill-opacity:1;fill-rule:nonzero;stroke:none"
         id="path130" /><path
         d="m 1904.07,3724.23 c -1.32,-8.49 -9.61,-14.37 -18.51,-13.16 -8.87,1.23 -15.02,9.08 -13.69,17.57 1.32,8.5 9.6,14.4 18.48,13.18 8.9,-1.22 15.04,-9.09 13.72,-17.59"
         style="fill:#1d2a30;fill-opacity:1;fill-rule:nonzero;stroke:none"
         id="path132" /><path
         d="m 1905,3743.48 c -2.39,-1.7 -12.76,9.58 -29.97,12.84 -17.13,3.5 -31.45,-2.91 -32.9,-0.45 -0.75,1.11 2,4.48 8.26,7.42 6.17,2.95 16.14,5.05 26.84,2.94 10.7,-2.12 18.95,-7.79 23.35,-12.82 4.5,-5.07 5.57,-9.18 4.42,-9.93"
         style="fill:#1d2a30;fill-opacity:1;fill-rule:nonzero;stroke:none"
         id="path134" /><path
         d="m 1731.11,3748.75 c -1.32,-8.49 -9.6,-14.37 -18.5,-13.15 -8.88,1.21 -15.02,9.08 -13.7,17.57 1.33,8.49 9.61,14.38 18.49,13.17 8.9,-1.22 15.04,-9.09 13.71,-17.59"
         style="fill:#1d2a30;fill-opacity:1;fill-rule:nonzero;stroke:none"
         id="path136" /><path
         d="m 1733.08,3770.46 c -2.38,-1.7 -12.78,9.59 -29.96,12.84 -17.14,3.51 -31.46,-2.91 -32.92,-0.45 -0.73,1.11 1.99,4.49 8.27,7.42 6.17,2.95 16.14,5.05 26.84,2.95 10.7,-2.13 18.95,-7.79 23.35,-12.83 4.5,-5.07 5.57,-9.18 4.42,-9.93"
         style="fill:#1d2a30;fill-opacity:1;fill-rule:nonzero;stroke:none"
         id="path138" /><path
         d="m 1769.74,3626.93 c 0.1,1 11.15,0.79 28.89,-0.32 4.48,-0.4 8.8,-0.32 10.11,2.53 1.65,2.98 0.72,8.06 -0.42,13.57 -2.09,11.42 -4.27,23.39 -6.56,35.93 -8.88,51.06 -14.41,92.7 -12.35,93.05 2.06,0.33 10.93,-40.78 19.81,-91.84 2.08,-12.57 4.08,-24.55 5.97,-36.01 0.7,-5.31 2.47,-11.52 -1.04,-17.67 -1.81,-3.05 -5.49,-4.81 -8.45,-5.04 -2.98,-0.31 -5.45,0.12 -7.65,0.41 -17.61,2.41 -28.43,4.41 -28.31,5.39"
         style="fill:#1d2a30;fill-opacity:1;fill-rule:nonzero;stroke:none"
         id="path140" /><path
         d="m 1744.86,3805.46 c -2.59,-4.34 -19.33,1.17 -39.97,2.62 -20.61,1.86 -38,-0.92 -39.87,3.79 -0.81,2.23 2.87,6.09 10.31,9.35 7.39,3.26 18.62,5.56 30.98,4.58 12.37,-1.01 23.09,-5.06 29.85,-9.46 6.83,-4.41 9.86,-8.79 8.7,-10.88"
         style="fill:#1d2a30;fill-opacity:1;fill-rule:nonzero;stroke:none"
         id="path142" /><path
         d="m 1912.92,3806.03 c -3.78,-3.32 -14.84,3.01 -29.05,5.93 -14.09,3.43 -26.8,2.43 -28.79,7.06 -0.84,2.21 1.82,5.76 7.8,8.44 5.9,2.69 15.16,4.02 24.89,1.85 9.72,-2.19 17.52,-7.36 21.71,-12.31 4.26,-4.98 5.14,-9.32 3.44,-10.97"
         style="fill:#1d2a30;fill-opacity:1;fill-rule:nonzero;stroke:none"
         id="path144" /><path
         d="m 1538.52,3742.61 c -1.75,1.19 -72.5,37.51 -84.76,-39.44 -12.26,-76.95 67.53,-73.39 68.01,-71.2 0.48,2.18 16.75,110.64 16.75,110.64"
         style="fill:#f9ad95;fill-opacity:1;fill-rule:nonzero;stroke:none"
         id="path146" /><path
         d="m 1502.91,3664.86 c -0.3,0.31 -1.49,-0.72 -3.92,-1.4 -2.37,-0.66 -6.28,-0.75 -10.06,1.4 -7.65,4.27 -12.44,18.27 -10.6,32.2 0.92,7.03 3.45,13.47 6.81,18.6 3.25,5.25 7.51,8.61 11.72,8.68 4.23,0.29 6.73,-2.62 7.33,-4.94 0.68,-2.31 -0.05,-3.77 0.34,-3.97 0.18,-0.22 1.86,1.03 1.74,4.3 -0.07,1.58 -0.68,3.54 -2.26,5.31 -1.61,1.79 -4.2,3 -7.1,3.14 -6,0.53 -12.21,-4.08 -15.9,-9.7 -4.03,-5.6 -7.03,-12.81 -8.06,-20.71 -1.98,-15.59 3.64,-31.36 14.25,-36.35 5.19,-2.27 9.97,-1.36 12.59,0.08 2.68,1.53 3.37,3.18 3.12,3.36"
         style="fill:#f6865e;fill-opacity:1;fill-rule:nonzero;stroke:none"
         id="path148" /><path
         d="m 1496.46,3753.38 c 12.21,0.58 30.32,-14.06 33.19,-25.94 2.88,-11.88 1.59,-24.46 4.45,-36.35 2.85,-11.88 12.17,-23.92 24.38,-23.4 8.42,0.36 15.63,6.8 19.29,14.39 3.66,7.58 4.43,16.21 4.97,24.62 2.36,36.58 1.66,73.45 7.14,109.7 5.48,36.24 17.79,72.63 42.57,99.65 24.78,27.01 63.81,42.88 99.13,33.09 23.41,-6.49 42.82,-23.07 65.8,-30.92 27.25,-9.31 58.74,-5.11 82.61,10.99 0.81,0.54 2.35,1.33 4.17,2.2 8.46,4.04 13.67,13.22 11.95,22.44 -0.59,3.14 -1.55,6.08 -3.11,8.19 -38.52,52.33 -120.61,80.66 -185.48,76.98 -64.88,-3.68 -131.28,-36.22 -169.06,-89.09 -37.78,-52.87 -45.38,-135.05 -42,-196.55"
         style="fill:#1d2a30;fill-opacity:1;fill-rule:nonzero;stroke:none"
         id="path150" /><path
         d="m 1804.37,3574.8 c -0.5,-1.35 -11.42,1.44 -24.4,6.22 -12.98,4.78 -23.09,9.75 -22.6,11.1 0.5,1.35 11.43,-1.44 24.4,-6.21 12.98,-4.78 23.09,-9.76 22.6,-11.11"
         style="fill:#1d2a30;fill-opacity:1;fill-rule:nonzero;stroke:none"
         id="path152" /><path
         d="m 1887.95,3488.53 c 0.51,-0.13 -1.49,-8.93 -9.52,-20.8 -7.86,-11.87 -22.48,-25.94 -41.78,-36.04 -19.29,-10.1 -38.41,-14.97 -52.12,-17.8 -13.79,-2.78 -22.44,-3.61 -22.57,-2.95 -0.15,0.76 8.27,2.87 21.71,6.53 13.38,3.72 31.93,9.07 50.55,18.83 18.6,9.74 32.91,22.72 41.24,33.6 8.47,10.85 11.66,18.99 12.49,18.63"
         style="fill:#f6865e;fill-opacity:1;fill-rule:nonzero;stroke:none"
         id="path154" /><path
         d="m 1833.78,3431.41 c -27.08,-13.56 -47.03,-50.39 -64.24,-74.26 -5.27,-7.3 -10.68,-14.95 -12.16,-23.83 -1.56,-9.42 1.52,-18.94 4.85,-27.89 4.94,-13.33 10.51,-26.41 16.08,-39.48 1.58,-3.71 3.69,-7.89 7.63,-8.79 5,-1.14 9.27,3.78 11.32,8.49 5.1,11.7 4.6,24.95 6.34,37.59 1.74,12.65 6.96,26.31 18.57,31.61"
         style="fill:#f6865e;fill-opacity:1;fill-rule:nonzero;stroke:none"
         id="path156" /><path
         d="m 1876.58,3331.55 -26.36,19.69 c -3.32,2.71 -8.2,2.29 -11,-0.95 l -14,-16.17 -0.02,-0.14 7.36,-40.93 c 8.62,-52.47 -30.28,-44.28 -30.28,-44.28 l -3.09,10.04 -17.09,63.99 c -3.45,30.55 -1.01,34.16 13.84,56.28 l 32.61,46.61 c 6.77,10.08 19.51,14.21 30.9,10.01 46.79,-17.27 147.72,-48.56 159.09,-88.19 20.72,-72.25 37.42,-256.53 37.72,-259.81 v -0.07 l -142.45,-12.78 0.67,122.97 c 0,0 -20.68,12.03 -26.77,33.73 -6.09,21.7 -11.13,100 -11.13,100"
         style="fill:#f9ad95;fill-opacity:1;fill-rule:nonzero;stroke:none"
         id="path158" /><path
         d="m 1975.27,3307.47 c 0.22,-0.24 -1.51,-2.47 -5.42,-5.77 -3.91,-3.18 -10.14,-7.74 -19.4,-9.83 -4.61,-0.99 -9.93,-1.2 -15.45,0.11 -5.45,1.28 -11.25,4.39 -15.28,9.47 -8.35,10.08 -9.55,24.26 -16.98,34.58 -3.79,4.7 -9.48,8.6 -14.68,12.03 -5.32,3.44 -10.71,6.43 -15.95,8.91 -5.1,2.24 -10.77,5.02 -14.6,4.13 -4.39,-1.06 -8.35,-4.08 -11.63,-6.88 -12.91,-11.97 -19.99,-20.9 -20.72,-20.17 -0.28,0.24 1.28,2.56 4.28,6.6 3.06,3.99 7.37,9.88 13.97,16.3 3.36,3.11 7.24,6.65 13.14,8.36 1.52,0.35 3.13,0.48 4.84,0.27 1.5,-0.26 2.95,-0.6 4.35,-1.05 2.83,-0.86 5.6,-1.96 8.37,-3.2 5.54,-2.47 11.13,-5.45 16.7,-8.97 5.52,-3.64 11.23,-7.25 16.11,-13.23 8.48,-12.25 9.42,-26.1 16.53,-34.66 6.73,-8.76 18.13,-10.37 26.31,-8.99 8.47,1.44 14.74,5.25 18.89,7.86 4.15,2.7 6.36,4.42 6.62,4.13"
         style="fill:#f6865e;fill-opacity:1;fill-rule:nonzero;stroke:none"
         id="path160" /><path
         d="m 1959.47,3264.11 c -0.23,-1.37 -18.5,0.61 -40.19,6.9 -21.71,6.24 -38.22,14.3 -37.68,15.58 0.56,1.38 17.72,-4.43 39.13,-10.58 21.38,-6.2 39,-10.44 38.74,-11.9"
         style="fill:#f6865e;fill-opacity:1;fill-rule:nonzero;stroke:none"
         id="path162" /><path
         d="m 1908.72,3330.96 c -37.35,-0.08 -41.71,1.73 -84.05,-0.58 -6.29,-0.35 -12.72,-0.72 -18.59,-3.01 -5.88,-2.29 -11.24,-6.86 -12.79,-12.97 -2.96,-11.58 8.74,-22.14 20.39,-24.79 11.65,-2.64 23.99,-0.59 35.63,-3.29 17.75,-4.12 36.38,-12.6 46.87,-27.5 24.35,-34.58 49.95,-17.94 66.58,-30.28 l 43.64,27.55 -15.41,64.43 -82.27,10.44"
         style="fill:#f9ad95;fill-opacity:1;fill-rule:nonzero;stroke:none"
         id="path164" /><path
         d="m 1966.57,3228.54 c -0.3,-0.52 -3.87,2.69 -11.93,3.68 -7.78,1.54 -20.39,-0.42 -34.56,6.08 -6.94,3.24 -13.53,8.75 -19.06,15.68 -5.24,7.16 -10.99,13.45 -19.24,18.37 -8,4.94 -17.39,8.58 -27.44,11.04 -9.78,2.73 -20.63,1.39 -32.24,2.79 -11.63,1.19 -23.63,7.99 -27.34,19.85 -1.78,5.96 0.23,12.62 4.16,16.79 3.81,4.29 8.99,6.81 13.98,8.04 10.15,2.27 19.28,1.74 27.95,2.28 8.65,0.27 16.74,0.38 24.11,0.25 14.76,-0.29 26.6,-1.03 34.81,-1.37 8.21,-0.38 12.75,-0.69 12.76,-1.06 0,-0.34 -4.55,-0.72 -12.78,-0.96 -8.22,-0.29 -20.15,-0.11 -34.78,-0.29 -7.32,-0.1 -15.33,-0.43 -23.94,-0.89 -8.52,-0.68 -18.09,-0.45 -26.92,-2.6 -8.56,-1.88 -17.2,-9.81 -14.43,-18.83 2.7,-8.77 12.73,-15.14 23.08,-16.05 10.61,-1.35 22.03,0.01 32.81,-3 10.46,-2.63 20.29,-6.54 28.76,-11.93 8.55,-5.11 15.33,-12.85 20.07,-19.75 5.1,-6.66 11.03,-11.86 17.31,-15.06 12.7,-6.42 25.2,-5.24 33.3,-7.38 4.12,-0.86 7.14,-2.3 9,-3.49 1.81,-1.31 2.67,-2.05 2.56,-2.19"
         style="fill:#f6865e;fill-opacity:1;fill-rule:nonzero;stroke:none"
         id="path166" /><path
         d="m 1904.58,3360.15 c 0.05,0.64 2.74,1.17 6.58,-0.6 3.74,-1.67 8.5,-6.19 9.52,-12.98 0.92,-6.79 -2.39,-12.46 -5.52,-15.11 -3.2,-2.78 -5.93,-3.02 -6.15,-2.42 -0.34,0.7 1.53,2.09 3.42,4.89 1.9,2.71 3.75,7.18 3.1,11.91 -0.69,4.72 -3.72,8.5 -6.3,10.58 -2.6,2.15 -4.79,2.97 -4.65,3.73"
         style="fill:#f6865e;fill-opacity:1;fill-rule:nonzero;stroke:none"
         id="path168" /><path
         d="m 1988.29,1683.9 -182.37,-455.33 176.93,-31.07 197.4,392.67 -191.96,93.73"
         style="fill:#f9ad95;fill-opacity:1;fill-rule:nonzero;stroke:none"
         id="path170" /><path
         d="m 2096.3,1371.47 -100.48,-204.25 c 0,0 173.85,-170.732 158.96,-210.29 l -403.03,180.62 143.52,324.67 201.03,-90.75"
         style="fill:#f03658;fill-opacity:1;fill-rule:nonzero;stroke:none"
         id="path172" /><path
         d="m 1879.02,1240.53 c -8.76,1.37 -18.08,-4.99 -19.8,-13.68 -1.72,-8.69 4.66,-18.22 13.39,-19.74 8.73,-1.52 20.15,5.77 20.89,14.6 0.74,8.83 -7.37,19.61 -16.2,18.99"
         style="fill:#e3e3e2;fill-opacity:1;fill-rule:nonzero;stroke:none"
         id="path174" /><path
         d="m 2154.78,956.93 -365.71,163.89 v 0 l 365.71,-163.89 c 2.15,5.711 0.37,14.16 -4.26,24.441 3.75,-5.211 9.85,-15.922 4.26,-24.441"
         style="fill:#16191b;fill-opacity:1;fill-rule:nonzero;stroke:none"
         id="path176" /><path
         d="m 2154.78,956.93 -365.71,163.89 -37.32,16.73 14.49,32.77 381.79,-185.808 c 0,0 1.08,-1.192 2.49,-3.141 4.63,-10.281 6.41,-18.73 4.26,-24.441"
         style="fill:#a02232;fill-opacity:1;fill-rule:nonzero;stroke:none"
         id="path178" /><path
         d="m 2003.27,1166.34 c -0.95,-1.93 -11.19,1.59 -23.71,-0.41 -12.57,-1.66 -21.38,-7.95 -22.84,-6.35 -1.65,1.2 6.56,11.65 21.76,13.79 15.17,2.27 26.02,-5.4 24.79,-7.03"
         style="fill:#1d2a30;fill-opacity:1;fill-rule:nonzero;stroke:none"
         id="path180" /><path
         d="m 2037.7,1129.92 c -0.4,-2.11 -10.43,-1.64 -20.84,-6.96 -10.57,-5.02 -16.29,-13.28 -18.21,-12.31 -1.99,0.52 1.82,12.66 14.89,19.03 13.01,6.5 24.96,2.13 24.16,0.24"
         style="fill:#1d2a30;fill-opacity:1;fill-rule:nonzero;stroke:none"
         id="path182" /><path
         d="m 2039.04,1068.57 c -1.98,0.38 -0.31,11.44 9.57,19.95 9.83,8.59 21.01,8.67 21.11,6.66 0.39,-2.11 -8.18,-5.21 -16.19,-12.33 -8.17,-6.92 -12.45,-14.96 -14.49,-14.28"
         style="fill:#1d2a30;fill-opacity:1;fill-rule:nonzero;stroke:none"
         id="path184" /><path
         d="m 2021,1215.44 c -1.62,-1.43 -9.44,5.33 -20.9,9.57 -11.38,4.46 -21.71,4.6 -21.97,6.74 -0.51,1.94 11.21,5.43 24.64,0.27 13.47,-5.07 19.89,-15.47 18.23,-16.58"
         style="fill:#1d2a30;fill-opacity:1;fill-rule:nonzero;stroke:none"
         id="path186" /><path
         d="m 2040.51,1257.02 c -0.34,-0.83 -8.66,1.44 -20.13,9.15 -5.71,3.84 -12.09,9.13 -18.22,15.95 -3.05,3.4 -6.04,7.19 -8.83,11.34 -1.32,2.02 -2.98,4.21 -3.96,7.47 -1.27,3.04 -0.16,8.81 3.79,10.88 3.45,2.17 7.7,1.88 10.64,0.64 3.01,-1.23 5.15,-2.91 7.09,-4.44 4.01,-3.1 7.54,-6.47 10.62,-9.93 6.14,-6.95 10.41,-14.19 13.14,-20.55 5.47,-12.86 5.37,-21.63 4.53,-21.71 -1.19,-0.26 -2.98,7.95 -9.29,19.35 -3.15,5.69 -7.56,12.08 -13.45,18.22 -2.97,3.04 -6.3,6.02 -9.99,8.76 -3.77,3.03 -7.39,4.69 -9.33,3.29 -0.73,-0.55 -0.9,-0.81 -0.57,-2.46 0.4,-1.57 1.63,-3.47 2.92,-5.47 2.53,-3.93 5.21,-7.56 7.94,-10.88 5.47,-6.64 11.12,-12.03 16.16,-16.22 10.1,-8.4 17.46,-12.35 16.94,-13.39"
         style="fill:#1d2a30;fill-opacity:1;fill-rule:nonzero;stroke:none"
         id="path188" /><path
         d="m 2036.69,1255.34 c -0.83,0.01 -1.58,8.82 3.41,21.88 2.5,6.48 6.59,13.84 12.66,20.87 3.05,3.49 6.59,6.88 10.63,9.95 4.15,2.92 9.42,6.97 17.44,4.42 4.06,-1.64 5.97,-6.23 5.91,-9.41 0.11,-3.32 -0.67,-5.78 -1.25,-8.33 -1.36,-5.04 -3.52,-9.62 -6.07,-13.6 -5.12,-8.01 -11.83,-13.56 -17.97,-16.98 -12.55,-6.92 -21.82,-5.59 -21.69,-4.85 -0.21,1.28 8.35,2.01 18.87,9.35 5.19,3.61 10.76,8.95 14.89,16.1 2.07,3.56 3.79,7.54 4.86,11.83 1.29,4.57 1.23,8.74 -0.57,9.02 -1.99,0.93 -6.84,-0.77 -10.03,-3.44 -3.68,-2.69 -6.99,-5.65 -9.9,-8.71 -5.78,-6.15 -10.01,-12.62 -12.93,-18.38 -5.86,-11.59 -7.06,-19.9 -8.26,-19.72"
         style="fill:#1d2a30;fill-opacity:1;fill-rule:nonzero;stroke:none"
         id="path190" /><path
         d="m 1639.14,2229.92 561.62,275 c 98.84,48.39 217.72,26.15 292.36,-54.72 69.51,-75.31 85.76,-185.53 40.94,-277.68 l -372.63,-766.21 -311.69,98.25 274.09,584.05 -308.34,-234.98 c -83.27,-63.47 -184.87,-98.25 -289.57,-99.15 l -80.74,-0.69 c -135.28,5.64 -257.83,81.41 -323.31,199.92 l 517.27,276.21"
         style="fill:#1d2a30;fill-opacity:1;fill-rule:nonzero;stroke:none"
         id="path192" /><path
         d="m 2161.43,1406.31 c 0,0 -1.98,0.4 -5.72,1.46 -3.98,1.18 -9.47,2.8 -16.52,4.89 -14.73,4.5 -35.92,10.98 -62.9,19.23 -54.56,16.97 -132.5,41.21 -227.18,70.67 l -2.29,0.71 1.02,2.19 c 55.04,117.61 123.6,264.11 197.77,422.59 26.21,55.79 51.72,110.1 75.92,161.63 l 3.83,-3.1 c -141.43,-105.36 -268,-192.87 -361.4,-250.5 -46.74,-28.71 -85.29,-49.82 -113.02,-61.76 -13.87,-5.92 -24.99,-9.63 -32.76,-11.15 -3.79,-1.11 -6.9,-0.88 -8.88,-1.16 -2.01,-0.14 -3.03,-0.17 -3.03,-0.1 -0.02,0.35 4.14,0.32 11.72,2.15 7.62,1.79 18.54,5.73 32.24,11.87 27.37,12.38 65.58,33.87 112.01,62.92 92.78,58.3 218.92,146.3 360.07,251.78 l 8.12,6.08 -4.3,-9.17 c -24.17,-51.57 -49.64,-105.88 -75.81,-161.7 -74.5,-158.32 -143.38,-304.67 -198.67,-422.17 l -1.27,2.9 c 94.45,-30.18 172.2,-55.01 226.63,-72.39 26.83,-8.72 47.91,-15.57 62.55,-20.33 6.97,-2.33 12.4,-4.15 16.34,-5.47 3.68,-1.27 5.53,-2.07 5.53,-2.07"
         style="fill:#365462;fill-opacity:1;fill-rule:nonzero;stroke:none"
         id="path194" /><path
         d="m 2229.42,2215.46 c 1.02,-1.47 -34.36,-19.08 -64.65,-55.72 -30.76,-36.27 -41.88,-74.19 -43.49,-73.43 -0.56,0.15 1.41,9.74 7.43,24.32 5.97,14.57 16.57,33.91 32.06,52.46 15.54,18.5 32.71,32.33 46,40.76 13.3,8.5 22.4,12.12 22.65,11.61"
         style="fill:#365462;fill-opacity:1;fill-rule:nonzero;stroke:none"
         id="path196" /><path
         d="m 1038.87,1131.31 h 807.84 c 11.22,0 20.41,-8.93 20.73,-20.15 0.32,-11.68 -9.05,-21.32 -20.73,-21.32 h -807.84 c -11.45,0 -20.73,9.28 -20.73,20.73 0,11.46 9.28,20.74 20.73,20.74"
         style="fill:#e3e3e2;fill-opacity:1;fill-rule:nonzero;stroke:none"
         id="path198" /><path
         d="m 1740.44,1645.57 h -631.9 c 0,67.62 54.81,122.43 122.43,122.43 h 387.04 c 67.62,0 122.43,-54.81 122.43,-122.43"
         style="fill:#365462;fill-opacity:1;fill-rule:nonzero;stroke:none"
         id="path200" /><path
         d="m 1760.29,1608.43 h -666.64 v 37.14 h 666.64 v -37.14"
         style="fill:#e3e3e2;fill-opacity:1;fill-rule:nonzero;stroke:none"
         id="path202" /><path
         d="M 1152.99,1608.43 989.992,1.80078 h 38.338 L 1227.26,1608.43 h -74.27"
         style="fill:#e3e3e2;fill-opacity:1;fill-rule:nonzero;stroke:none"
         id="path204" /><path
         d="M 1695.98,1608.43 1858.91,2.58984 1820.58,2.39063 1621.79,1607.83 l 74.19,0.6"
         style="fill:#e3e3e2;fill-opacity:1;fill-rule:nonzero;stroke:none"
         id="path206" /><path
         d="M 1468.94,1622.55 1441.51,1.85156 h -39.35 L 1385.01,1627 l 83.93,-4.45"
         style="fill:#e3e3e2;fill-opacity:1;fill-rule:nonzero;stroke:none"
         id="path208" /><path
         d="m 1456.17,3384.01 39.57,120.21 261.32,-120.93 -11.96,-127.22 -130.23,-37 -127.84,78.34 -30.86,86.6"
         style="fill:#f03658;fill-opacity:1;fill-rule:nonzero;stroke:none"
         id="path210" /><path
         d="m 1121.87,1953.71 c 0,0 -36.48,22.19 -36.62,72.92 -0.12,48.17 42.98,52.15 44.38,78.81 14.37,275.52 45.55,846.22 66.13,1026.31 25.94,227 291.86,274.96 291.86,274.96 l 219.58,-53.94 v -16.59 c 76,-97.7 108.88,-244.97 108.95,-368.75 l -10.23,-655.85 -684.05,-357.87"
         style="fill:#f03658;fill-opacity:1;fill-rule:nonzero;stroke:none"
         id="path212" /><path
         d="m 1368.64,2321.03 c 0.28,-0.23 -2.63,-4.2 -8.14,-11.2 -5.48,-7.02 -13.71,-16.93 -24.12,-28.97 -20.8,-24.11 -50.73,-56.41 -85.88,-89.98 -35.18,-33.57 -68.84,-61.98 -93.88,-81.63 -12.52,-9.84 -22.8,-17.6 -30.06,-22.75 -7.25,-5.17 -11.35,-7.9 -11.57,-7.62 -0.21,0.29 3.47,3.56 10.33,9.22 7.62,6.31 17.34,14.37 28.98,24.01 24.39,20.34 57.54,49.09 92.61,82.53 35.02,33.46 65.27,65.25 86.72,88.67 10.17,11.17 18.67,20.51 25.32,27.83 5.98,6.59 9.42,10.12 9.69,9.89"
         style="fill:#1d2a30;fill-opacity:1;fill-rule:nonzero;stroke:none"
         id="path214" /><path
         d="m 1155.58,2105.58 -2.78,0.68 c 1.25,0.97 2.52,1.97 3.82,2.99 25.04,19.65 58.7,48.06 93.88,81.63 15.05,14.37 29.14,28.51 41.97,41.88 -41.83,-46.25 -87.7,-88.86 -136.89,-127.18 m -3.08,5.03 c 2.72,39.63 32.69,72.4 62.41,99.34 36.02,32.63 74.37,62.69 114.67,89.88 0.94,-9.8 -1.78,-19.09 -6.36,-27.8 -20.38,-21.88 -46.64,-49.03 -76.31,-77.39 -35.07,-33.44 -68.22,-62.19 -92.61,-82.53 -0.61,-0.51 -1.21,-1 -1.8,-1.5"
         style="fill:#d82b43;fill-opacity:1;fill-rule:nonzero;stroke:none"
         id="path216" /><path
         d="m 1152.8,2106.26 -0.49,0.11 c 0.03,1.43 0.09,2.84 0.19,4.24 0.59,0.5 1.19,0.99 1.8,1.5 24.39,20.34 57.54,49.09 92.61,82.53 29.67,28.36 55.93,55.51 76.31,77.39 -4.9,-9.32 -11.93,-17.98 -18.86,-25.91 -3.93,-4.49 -7.89,-8.94 -11.89,-13.36 -12.83,-13.37 -26.92,-27.51 -41.97,-41.88 -35.18,-33.57 -68.84,-61.98 -93.88,-81.63 -1.3,-1.02 -2.57,-2.02 -3.82,-2.99"
         style="fill:#182124;fill-opacity:1;fill-rule:nonzero;stroke:none"
         id="path218" /><path
         d="m 1536.64,3403.88 c -1.38,0.43 2.24,16.04 8.08,34.87 5.84,18.83 11.68,33.75 13.06,33.32 1.37,-0.42 -2.25,-16.03 -8.09,-34.86 -5.83,-18.83 -11.68,-33.75 -13.05,-33.33"
         style="fill:#1d2a30;fill-opacity:1;fill-rule:nonzero;stroke:none"
         id="path220" /><path
         d="m 1638.59,3437.98 c 1.41,-0.32 -0.96,-15.84 -5.29,-34.68 -4.32,-18.84 -8.97,-33.84 -10.37,-33.51 -1.4,0.32 0.97,15.84 5.3,34.68 4.32,18.83 8.96,33.84 10.36,33.51"
         style="fill:#1d2a30;fill-opacity:1;fill-rule:nonzero;stroke:none"
         id="path222" /><path
         d="m 1714.49,3400.09 c 1.44,-0.33 -0.73,-14.31 -2.7,-31.54 -2.02,-17.24 -3.11,-31.34 -4.59,-31.34 -1.39,-0.02 -2.64,14.35 -0.58,31.93 2.01,17.59 6.52,31.3 7.87,30.95"
         style="fill:#1d2a30;fill-opacity:1;fill-rule:nonzero;stroke:none"
         id="path224" /><path
         d="m 1450.7,2758.28 c 0,-0.36 -3.94,-0.63 -11.07,-0.8 -7.14,-0.18 -17.46,-0.27 -30.21,-0.27 -25.52,0.01 -60.76,0.38 -99.68,1.11 -38.94,0.73 -74.18,1.68 -99.68,2.63 -12.75,0.47 -23.07,0.95 -30.19,1.39 -7.13,0.44 -11.07,0.86 -11.06,1.22 0.01,0.36 3.96,0.63 11.09,0.81 7.14,0.18 17.46,0.27 30.22,0.26 25.51,-0.01 60.74,-0.38 99.67,-1.1 38.91,-0.73 74.13,-1.68 99.64,-2.63 11.86,-0.55 21.93,-1.02 30.2,-1.4 7.12,-0.44 11.07,-0.86 11.07,-1.22"
         style="fill:#fcfdfd;fill-opacity:1;fill-rule:nonzero;stroke:none"
         id="path226" /><path
         d="m 1394.92,2842.17 c -0.03,-1.44 -50.15,-1.53 -111.93,-0.22 -61.8,1.33 -111.86,3.56 -111.82,5 0.03,1.44 50.13,1.53 111.94,0.21 61.77,-1.31 111.84,-3.55 111.81,-4.99"
         style="fill:#fcfdfd;fill-opacity:1;fill-rule:nonzero;stroke:none"
         id="path228" /><path
         d="m 1743.46,2365.93 c -15.21,0 -30.81,4.9 -49.06,15.82 -42.35,25.34 -73.72,65.21 -103.02,104.94 -65.26,88.48 -125.28,177.67 -179.68,270.52 11.71,0.01 21.22,0.1 27.93,0.27 7.13,0.17 11.07,0.44 11.07,0.8 0,0.36 -3.95,0.78 -11.07,1.22 -8.24,0.38 -18.27,0.84 -30.08,1.39 -15.4,26.39 -30.36,53.09 -44.84,80.15 18.72,0.06 30.19,0.45 30.21,1.13 70.38,-98.96 140.2,-198.79 211.35,-296.54 28.78,-39.54 61.34,-79 100.93,-107.69 40.15,-29.11 52.58,-33.89 99.83,-48.94 -24.04,-14.53 -43.48,-23.07 -63.57,-23.07"
         style="fill:#d82b43;fill-opacity:1;fill-rule:nonzero;stroke:none"
         id="path230" /><path
         d="m 1411.7,2757.21 c -0.72,1.23 -1.43,2.45 -2.15,3.68 11.81,-0.55 21.84,-1.01 30.08,-1.39 7.12,-0.44 11.07,-0.86 11.07,-1.22 0,-0.36 -3.94,-0.63 -11.07,-0.8 -6.71,-0.17 -16.22,-0.26 -27.93,-0.27"
         style="fill:#cac8c7;fill-opacity:1;fill-rule:nonzero;stroke:none"
         id="path232" /><path
         d="m 1394.85,2842.27 c -0.99,0.69 -13.05,1.56 -32.1,2.42 -22.03,41.32 -42.99,83.5 -62.84,126.78 l 8.59,-9 c 28.96,-39.79 57.7,-79.92 86.35,-120.2"
         style="fill:#d82b43;fill-opacity:1;fill-rule:nonzero;stroke:none"
         id="path234" /><path
         d="m 1364.71,2841.04 c -0.66,1.21 -1.31,2.43 -1.96,3.65 19.05,-0.86 31.11,-1.73 32.1,-2.42 0.02,-0.03 0.05,-0.07 0.07,-0.1 -0.02,-0.68 -11.49,-1.07 -30.21,-1.13"
         style="fill:#cac8c7;fill-opacity:1;fill-rule:nonzero;stroke:none"
         id="path236" /><path
         d="m 2131.61,2723.79 c 1.75,11.47 3.59,23.21 9.25,33.34 5.65,10.13 16.01,18.46 27.61,18.33 11.59,-0.13 22.82,-11.33 20.19,-22.63 -1.54,-6.66 -7,-11.56 -11.06,-17.07 -12.76,-17.36 -11.56,-40.87 -11.39,-62.42 0.18,-21.55 -2.69,-46 -19.93,-58.94"
         style="fill:#f9ad95;fill-opacity:1;fill-rule:nonzero;stroke:none"
         id="path238" /><path
         d="m 1338.18,3225.8 c -84.54,-59.08 -102.99,-176.59 -40.62,-258.73 l 365.41,-481.21 c 79.37,-103.26 220.5,-136.3 337.48,-79.03 98.66,48.32 158.9,150.93 152.99,260.64 l -80.45,506.04 -196.63,-12.23 18.58,-412.11 -304.18,432.27 c -57.6,81.85 -170.55,101.69 -252.58,44.36"
         style="fill:#f03658;fill-opacity:1;fill-rule:nonzero;stroke:none"
         id="path240" /><path
         d="m 2125.75,2524.02 c -48.36,11.29 -56.57,19.61 -104.93,30.9 -14.39,3.36 -32.87,12.71 -26.42,27.93 3.38,7.97 11.89,12.7 20.52,12 18.85,-1.53 49.17,-12.76 67.33,-14.49 4.55,-0.44 4.41,4.14 2.41,7.24 -29.55,8.85 -59.81,15.35 -90.38,19.4 -19.06,2.53 -26.52,27.63 -11.12,39.15 1.94,1.46 10.57,4.04 12.94,3.7 19.37,-2.8 19.37,-2.8 40.03,-6.38 57.97,-10.03 50.28,1.45 50.28,1.45 0.37,4.35 -65.96,10.77 -99.88,14.83 -7.19,0.86 -15.11,2.1 -19.73,7.67 -5.62,6.79 -3.63,17.6 2.3,24.11 5.93,6.52 14.46,11.5 23.27,11.66 37.69,0.65 161.47,-13.11 161.47,-13.11 0,0 16.21,-22.04 11.26,-67.06 -5.44,-49.46 -39.35,-99 -39.35,-99"
         style="fill:#f9ad95;fill-opacity:1;fill-rule:nonzero;stroke:none"
         id="path242" /><path
         d="m 1950.65,2388.94 c 0,0 -1.76,-0.34 -5.23,-0.74 -3.67,-0.38 -8.79,-0.9 -15.39,-1.59 -13.54,-1.24 -33.55,-3.15 -59.44,-3.44 -25.76,-0.02 -58,1.29 -93.22,12.9 -35.23,11.65 -70.79,36.26 -102.89,69.63 -32.28,33.32 -63.4,73.37 -96.51,116.44 -32.9,43.24 -67.3,90 -103.08,139.5 -35.77,49.5 -72.87,101.79 -110.94,156.26 -18.93,27.32 -38.19,55.12 -57.73,83.33 -4.85,7.08 -9.71,14.19 -14.6,21.32 l -6.91,11.18 c -2.43,3.68 -4.49,7.57 -6.3,11.6 -8.16,15.67 -13.36,32.89 -16.4,50.46 -3.24,17.6 -3.31,35.59 -1.07,53.07 0.8,8.81 3.07,17.33 5,25.88 2.78,8.31 5.11,16.77 8.94,24.61 3.18,8.13 7.8,15.51 11.95,23.08 4.99,7.04 9.46,14.45 15.31,20.75 10.8,13.34 23.9,24.46 37.76,33.97 13.86,9.65 29.21,16.55 44.76,22.12 15.83,4.63 31.93,8.46 48.18,8.76 32.41,1.86 64.28,-5.97 91.89,-19.73 27.43,-14.34 50.5,-35.07 67.13,-59.18 16.48,-23.78 32.47,-46.86 47.94,-69.19 30.9,-44.64 59.68,-86.24 85.98,-124.23 52.35,-75.9 94.75,-137.39 124.2,-180.09 14.47,-21.18 25.75,-37.7 33.55,-49.11 3.69,-5.51 6.56,-9.78 8.61,-12.85 1.92,-2.92 2.79,-4.48 2.79,-4.48 0,0 -1.16,1.36 -3.22,4.17 -2.16,3 -5.17,7.17 -9.04,12.55 -7.99,11.29 -19.54,27.62 -34.36,48.56 -29.77,42.48 -72.63,103.65 -125.56,179.16 -26.45,37.88 -55.42,79.36 -86.51,123.87 -15.54,22.28 -31.6,45.31 -48.15,69.04 -16.3,23.48 -38.81,43.59 -65.54,57.51 -26.91,13.32 -57.95,20.9 -89.47,19.03 -15.81,-0.3 -31.45,-4.07 -46.83,-8.58 -15.11,-5.45 -30.03,-12.16 -43.5,-21.55 -13.46,-9.27 -26.2,-20.08 -36.67,-33.06 -5.69,-6.12 -10.01,-13.33 -14.86,-20.17 -4.02,-7.36 -8.51,-14.53 -11.59,-22.43 -3.73,-7.62 -5.98,-15.84 -8.69,-23.91 -1.85,-8.31 -4.07,-16.59 -4.85,-25.16 -2.16,-16.97 -2.09,-34.46 1.05,-51.54 2.96,-17.06 7.99,-33.8 15.93,-49.02 7.47,-15.36 17.75,-29.26 27.42,-43.48 19.52,-28.22 38.74,-56.02 57.64,-83.34 38.01,-54.49 75.01,-106.81 110.65,-156.38 35.66,-49.55 69.91,-96.38 102.63,-139.69 32.91,-43.11 63.84,-83.25 95.71,-116.48 31.7,-33.29 66.58,-57.71 101.19,-69.45 34.64,-11.7 66.63,-13.34 92.28,-13.62 25.78,-0.03 45.79,1.55 59.35,2.46 6.62,0.46 11.75,0.82 15.43,1.08 3.48,0.22 5.28,0.2 5.28,0.2"
         style="fill:#1d2a30;fill-opacity:1;fill-rule:nonzero;stroke:none"
         id="path244" /><path
         d="m 1915.85,2598.15 c -1.77,0.23 10.38,36.51 2.88,81.56 -6.85,45.18 -29.67,75.89 -28.05,76.66 0.44,0.34 6.71,-6.7 14.12,-19.94 7.43,-13.19 15.38,-32.93 19.07,-55.9 3.62,-22.97 2.19,-44.2 -0.78,-59.04 -2.94,-14.89 -6.71,-23.52 -7.24,-23.34"
         style="fill:#1d2a30;fill-opacity:1;fill-rule:nonzero;stroke:none"
         id="path246" /><path
         d="m 1920.79,3107.56 c -1.33,-0.4 -5.79,11.51 -7.06,27.02 -1.32,15.5 1.11,27.99 2.48,27.82 1.49,-0.13 1.42,-12.42 2.71,-27.39 1.21,-14.97 3.31,-27.08 1.87,-27.45"
         style="fill:#1d2a30;fill-opacity:1;fill-rule:nonzero;stroke:none"
         id="path248" /><path
         d="m 1974.93,3112.6 c -1.31,-0.44 -6.14,11.08 -8.08,26.23 -2.01,15.15 -0.3,27.52 1.09,27.44 1.48,-0.05 2.12,-12.12 4.07,-26.76 1.87,-14.66 4.35,-26.48 2.92,-26.91"
         style="fill:#1d2a30;fill-opacity:1;fill-rule:nonzero;stroke:none"
         id="path250" /><path
         d="m 2028.62,3124.26 c -1.44,-0.07 -3.13,9.79 -3.77,22.04 -0.64,12.24 0,22.23 1.44,22.3 1.43,0.08 3.12,-9.79 3.76,-22.03 0.64,-12.24 0,-22.23 -1.43,-22.31"
         style="fill:#1d2a30;fill-opacity:1;fill-rule:nonzero;stroke:none"
         id="path252" /><path
         d="m 1697.55,3012.84 c 0.82,-1.18 -61.19,-45.59 -138.49,-99.16 -77.32,-53.6 -140.64,-96.08 -141.46,-94.89 -0.82,1.18 61.18,45.57 138.49,99.17 77.3,53.57 140.63,96.06 141.46,94.88"
         style="fill:#fcfdfd;fill-opacity:1;fill-rule:nonzero;stroke:none"
         id="path254" /><path
         d="m 1649.14,3085.41 c 0.2,-0.31 -3.68,-3.27 -10.87,-8.38 -8.04,-5.64 -18.29,-12.83 -30.55,-21.42 -25.82,-18.05 -61.33,-43.18 -99.94,-71.77 -38.61,-28.61 -73.01,-55.25 -97.79,-74.69 -11.8,-9.22 -21.66,-16.93 -29.4,-22.98 -6.98,-5.39 -10.95,-8.23 -11.18,-7.96 -0.23,0.28 3.3,3.65 9.88,9.52 6.58,5.88 16.27,14.19 28.38,24.28 24.23,20.19 58.33,47.35 97.01,76.02 38.68,28.64 74.59,53.34 100.98,70.62 13.18,8.65 23.95,15.5 31.49,20.07 7.54,4.59 11.8,6.98 11.99,6.69"
         style="fill:#fcfdfd;fill-opacity:1;fill-rule:nonzero;stroke:none"
         id="path256" /><path
         d="M 3370.02,578.219 V 484.73 h 680.43 v 93.489 h -680.43"
         style="fill:#1d2a30;fill-opacity:1;fill-rule:nonzero;stroke:none"
         id="path258" /><path
         d="m 3371.18,485.891 h 678.09 v 91.179 h -678.09 z m 680.42,-2.321 h -682.75 v 95.821 H 4051.6 V 483.57"
         style="fill:#1d2a30;fill-opacity:1;fill-rule:nonzero;stroke:none"
         id="path260" /><path
         d="m 3433.1,515.852 97.94,-483.1801 h 362.39 l 94.68,452.0581 -555.01,31.122"
         style="fill:#1d2a30;fill-opacity:1;fill-rule:nonzero;stroke:none"
         id="path262" /><path
         d="m 3433.1,78.3789 52.24,-71.82812 h 440.48 l 62.29,71.82812 H 3433.1"
         style="fill:#365462;fill-opacity:1;fill-rule:nonzero;stroke:none"
         id="path264" /><path
         d="m 3684.67,501.73 c -1.33,0 -3.04,223.84 -3.82,499.92 -0.79,276.16 -0.33,499.96 1.01,499.97 1.34,0 3.06,-223.8 3.83,-499.96 0.78,-276.07 0.32,-499.93 -1.02,-499.93"
         style="fill:#1d2a30;fill-opacity:1;fill-rule:nonzero;stroke:none"
         id="path266" /><path
         d="m 3836.25,1061.91 c 0.14,-0.08 -0.49,-1.87 -1.83,-5.21 -1.59,-3.8 -3.6,-8.6 -6.07,-14.49 -1.36,-3.19 -2.85,-6.67 -4.44,-10.43 -1.4,-3.94 -2.92,-8.18 -4.53,-12.7 -1.65,-4.58 -3.4,-9.45 -5.25,-14.58 -1.82,-5.172 -3.25,-10.801 -5.03,-16.621 -7.43,-23.199 -13.34,-51.649 -19.04,-83.309 -4.95,-31.82 -8.66,-67.039 -10.52,-104.179 -3.31,-74.34 0.89,-141.75 5.37,-190.313 2.19,-24.289 4.39,-43.918 6.01,-57.476 0.7,-6.34 1.26,-11.524 1.71,-15.622 0.34,-3.589 0.44,-5.48 0.28,-5.511 -0.17,-0.02 -0.59,1.832 -1.24,5.359 -0.69,4.07 -1.56,9.211 -2.62,15.524 -2.19,13.5 -4.92,33.089 -7.55,57.386 -5.37,48.571 -10.14,116.184 -6.81,190.883 1.88,37.309 5.75,72.731 10.97,104.688 5.97,31.812 12.27,60.363 20.17,83.57 1.89,5.82 3.44,11.461 5.39,16.621 1.98,5.12 3.85,9.97 5.62,14.54 1.76,4.49 3.4,8.7 4.93,12.62 1.68,3.81 3.39,7.21 4.85,10.31 2.81,5.76 5.1,10.44 6.92,14.16 1.63,3.21 2.56,4.85 2.71,4.78"
         style="fill:#1d2a30;fill-opacity:1;fill-rule:nonzero;stroke:none"
         id="path268" /><path
         d="m 3818.85,1242.95 c 0.16,-0.06 -0.59,-2.6 -2.16,-7.38 -1.77,-5.18 -4.13,-12.11 -7.08,-20.82 -1.59,-4.55 -3.32,-9.55 -5.21,-14.99 -1.69,-5.58 -3.52,-11.62 -5.48,-18.08 -3.97,-12.95 -8.59,-27.67 -12.68,-44.23 -2.18,-8.25 -4.47,-16.9 -6.83,-25.88 -2.05,-9.09 -4.18,-18.54 -6.38,-28.3 -4.75,-19.48 -8.18,-40.66 -12.57,-62.77 -7.5,-44.449 -14.11,-93.602 -18.66,-145.449 -4.29,-51.879 -6.17,-101.449 -6.83,-146.563 -0.13,-45.097 0.44,-85.738 2.29,-119.808 0.6,-17.051 1.69,-32.45 2.57,-45.981 0.78,-13.539 1.63,-25.179 2.5,-34.687 0.69,-9.172 1.25,-16.473 1.66,-21.934 0.33,-5.019 0.42,-7.656 0.25,-7.68 -0.16,-0.019 -0.57,2.59 -1.22,7.582 -0.64,5.438 -1.49,12.719 -2.57,21.86 -1.16,9.48 -2.28,21.121 -3.33,34.66 -1.13,13.52 -2.47,28.918 -3.29,46 -2.29,34.102 -3.22,74.82 -3.33,120.031 0.41,45.207 2.16,94.91 6.47,146.938 4.57,51.992 11.33,101.269 19.09,145.831 4.52,22.14 8.11,43.34 13.05,62.85 2.3,9.78 4.53,19.23 6.67,28.33 2.48,8.98 4.86,17.61 7.15,25.88 4.32,16.54 9.18,31.24 13.41,44.15 2.1,6.42 4.06,12.43 5.87,17.98 2.03,5.41 3.91,10.39 5.62,14.9 3.32,8.58 5.96,15.42 7.95,20.52 1.86,4.68 2.92,7.1 3.07,7.04"
         style="fill:#1d2a30;fill-opacity:1;fill-rule:nonzero;stroke:none"
         id="path270" /><path
         d="m 3641.64,462.129 c -0.08,0 -0.22,0.891 -0.38,2.621 -0.17,2.012 -0.39,4.551 -0.65,7.711 -0.48,7.129 -1.15,17.051 -2,29.641 -1.63,26.109 -3.96,63.269 -6.83,109.027 -5.9,92.051 -14.44,219.223 -29.93,359.051 -7.91,69.92 -17.09,136.33 -26.63,196.54 -5.08,30.04 -9.68,58.65 -14.89,85.25 -4.79,26.68 -9.95,51.4 -14.7,73.95 -4.47,22.62 -9.45,42.87 -13.47,60.74 -3.93,17.89 -7.75,33.19 -10.93,45.69 -3.01,12.25 -5.37,21.9 -7.07,28.84 -0.71,3.09 -1.27,5.57 -1.72,7.54 -0.36,1.71 -0.51,2.58 -0.43,2.6 0.09,0.03 0.39,-0.81 0.91,-2.47 0.56,-1.94 1.29,-4.37 2.18,-7.42 1.92,-6.88 4.57,-16.46 7.95,-28.62 3.47,-12.43 7.55,-27.69 11.75,-45.53 4.27,-17.83 9.49,-38.05 14.18,-60.64 4.97,-22.54 10.33,-47.25 15.29,-73.93 5.4,-26.6 10.16,-55.21 15.35,-85.28 9.8,-60.25 19.13,-126.72 27.05,-196.71 15.5,-139.992 23.5,-267.281 28.54,-359.402 2.5,-46.058 4.24,-83.359 5.28,-109.137 0.47,-12.601 0.83,-22.543 1.1,-29.679 0.07,-3.172 0.12,-5.723 0.16,-7.731 0,-1.75 -0.03,-2.64 -0.11,-2.652"
         style="fill:#1d2a30;fill-opacity:1;fill-rule:nonzero;stroke:none"
         id="path272" /><path
         d="m 3679.13,1394 c -2.96,31.72 -35.01,55.64 -66.86,55.97 -31.84,0.33 -61.53,-18.77 -81,-43.97 -19.49,-25.2 -30.23,-55.96 -39.02,-86.58 -21.44,-74.71 -33.16,-153.2 -23.99,-230.39 9.17,-77.19 40.48,-153.178 95.87,-207.721 9,-8.86 20.67,-17.731 33.02,-15.09 6.76,1.441 12.3,6.133 17.44,10.769 108.79,98.282 171.63,245.502 167.32,392.062 -0.86,29.35 -4.72,59.9 -20.97,84.35 -16.26,24.46 -54.14,50.42 -81.81,40.6"
         style="fill:#f03658;fill-opacity:1;fill-rule:nonzero;stroke:none"
         id="path274" /><path
         d="m 3441.31,1648 c -14.95,-27.08 -29.9,-54.16 -44.86,-81.23 -1.04,-1.89 -2.42,-4.02 -4.58,-4.2 -2.35,-0.19 -4.12,2.04 -5.41,4.02 -39.53,60.67 -79.06,121.34 -118.59,182 l 27.33,15.49 146.11,-116.08"
         style="fill:#f03658;fill-opacity:1;fill-rule:nonzero;stroke:none"
         id="path276" /><g
         id="g278"><g
           id="g280"
           clip-path="url(#clipPath284)"><path
             d="m 3267.87,1562.56 h 173.438 v 201.523 H 3267.87 Z"
             style="fill:#d82b43;fill-opacity:1;fill-rule:nonzero;stroke:none"
             id="path286" /></g></g><path
         d="m 3681.86,1501.62 c -134.84,79.57 -269.69,159.14 -404.53,238.71 -4.13,2.44 -8.6,5.31 -9.85,9.94 -1.61,5.99 2.88,11.76 7.19,16.21 55.65,57.39 136.46,90.66 216.2,84.93 79.72,-5.74 156.4,-51.79 195.43,-121.55 39.05,-69.77 40.34,-162.02 -4.44,-228.24"
         style="fill:#f03658;fill-opacity:1;fill-rule:nonzero;stroke:none"
         id="path288" /><path
         d="m 3335.63,1816.53 c -0.01,0.17 1.81,0.39 5.3,0.66 3.49,0.18 8.64,0.8 15.29,0.74 13.29,0.32 32.61,-0.55 56.13,-4.47 23.5,-3.85 51.09,-11.41 79.93,-24.27 28.83,-12.81 58.64,-31.33 85.81,-55.68 26.95,-24.61 48.36,-52.44 63.97,-79.84 15.67,-27.42 25.94,-54.13 32.13,-77.13 6.23,-23.01 9.02,-42.15 10.02,-55.4 0.74,-6.61 0.44,-8.31 0.62,-11.8 0.08,-3.49 -2.95,-8.82 -3.12,-8.83 -0.43,-0.02 2.23,7.31 0.63,20.42 -1.57,13.12 -4.86,32.03 -11.46,54.67 -12.78,45.05 -42.48,105.79 -96.04,154.32 -53.6,48.44 -116.99,71.93 -163.1,80.17 -23.19,4.3 -42.33,5.7 -55.53,5.95 -13.22,0.28 -20.56,0.06 -20.58,0.49"
         style="fill:#1d2a30;fill-opacity:1;fill-rule:nonzero;stroke:none"
         id="path290" /><path
         d="m 3627.11,1666.38 c 0.23,-0.61 -7.56,-4.22 -20.45,-9.29 -12.89,-5.08 -30.9,-11.58 -51.05,-17.98 -20.15,-6.4 -38.61,-11.49 -52.07,-14.78 -13.46,-3.29 -21.89,-4.83 -22.06,-4.21 -0.18,0.67 7.95,3.39 21.14,7.51 14.92,4.66 32.31,10.1 51.53,16.11 19.15,6.18 36.49,11.77 51.35,16.58 13.16,4.24 21.37,6.71 21.61,6.06"
         style="fill:#1d2a30;fill-opacity:1;fill-rule:nonzero;stroke:none"
         id="path292" /><path
         d="m 3563.4,1837.5 c 1.31,0.11 4.17,-20.05 4.79,-45.13 0.65,-25.08 -1.19,-45.37 -2.5,-45.31 -1.37,0.05 -1.69,20.28 -2.34,45.18 -0.62,24.91 -1.31,45.14 0.05,45.26"
         style="fill:#1d2a30;fill-opacity:1;fill-rule:nonzero;stroke:none"
         id="path294" /><path
         d="m 3273.79,1744.86 c -0.18,0.61 11.01,4.68 29.39,10.34 18.38,5.67 43.97,12.83 72.51,19.72 28.54,6.86 54.6,12.14 73.53,15.47 18.95,3.33 30.77,4.8 30.88,4.17 0.12,-0.69 -11.46,-3.35 -30.2,-7.54 -18.73,-4.17 -44.61,-9.96 -73.08,-16.82 -28.45,-6.86 -54.12,-13.48 -72.7,-18.3 -18.59,-4.81 -30.13,-7.7 -30.33,-7.04"
         style="fill:#1d2a30;fill-opacity:1;fill-rule:nonzero;stroke:none"
         id="path296" /><path
         d="m 3511.23,1462.81 c -34.8,26.39 -71.6,31.58 -115.22,29.85 -43.63,-1.73 -86.1,-15.02 -126.09,-32.54 -68.21,-29.87 -132.34,-73.91 -173.1,-136.24 -40.75,-62.32 -54.94,-144.83 -24.42,-212.76 3.04,-6.77 6.99,-13.85 13.82,-16.77 7.17,-3.07 15.4,-0.67 22.83,1.75 77.58,25.31 155.71,50.86 227.05,90.5 71.34,39.63 136.27,94.72 174.55,166.79 9.18,17.3 16.87,35.83 18.37,55.36 1.5,19.53 -3.9,40.28 -17.79,54.06"
         style="fill:#f03658;fill-opacity:1;fill-rule:nonzero;stroke:none"
         id="path298" /><path
         d="m 3511.91,1470.99 c 0.05,-0.15 -1.87,-0.94 -5.59,-2.26 -4.19,-1.45 -9.58,-3.29 -16.25,-5.59 -3.59,-1.2 -7.52,-2.51 -11.77,-3.92 -4.27,-1.54 -8.81,-3.45 -13.75,-5.37 -9.82,-3.96 -21.21,-7.94 -33.22,-13.76 -6.07,-2.76 -12.42,-5.65 -19.02,-8.66 -6.59,-3.05 -13.18,-6.8 -20.16,-10.34 -14.06,-6.91 -28.29,-15.74 -43.43,-24.69 -29.75,-18.8 -61.22,-41.43 -91.87,-68.12 -30.38,-26.99 -56.84,-55.34 -79.29,-82.45 -10.81,-13.89 -21.37,-26.88 -30.02,-39.95 -4.41,-6.47 -8.96,-12.52 -12.82,-18.68 -3.83,-6.16 -7.5,-12.09 -11.01,-17.76 -7.31,-11.16 -12.7,-21.96 -17.88,-31.19 -2.53,-4.65 -5,-8.92 -7.07,-12.96 -1.95,-4.03 -3.74,-7.76 -5.39,-11.17 -3.13,-6.32 -5.65,-11.43 -7.62,-15.41 -1.79,-3.5 -2.8,-5.32 -2.96,-5.25 -0.16,0.07 0.57,2.01 2.07,5.64 1.76,4.09 4.01,9.33 6.8,15.82 1.53,3.47 3.21,7.28 5.03,11.39 1.95,4.12 4.31,8.46 6.73,13.2 4.98,9.38 10.19,20.36 17.34,31.69 3.45,5.75 7.06,11.77 10.81,18.02 3.81,6.25 8.3,12.39 12.67,18.95 8.56,13.24 19.07,26.41 29.85,40.47 22.4,27.44 48.96,56.09 79.56,83.28 30.86,26.88 62.64,49.57 92.72,68.29 15.32,8.9 29.71,17.65 43.94,24.44 7.06,3.5 13.72,7.18 20.4,10.16 6.68,2.92 13.1,5.73 19.26,8.43 12.15,5.64 23.69,9.41 33.64,13.16 5,1.79 9.61,3.59 13.93,4.99 4.32,1.28 8.31,2.46 11.95,3.55 6.8,1.93 12.29,3.5 16.56,4.72 3.8,1.04 5.82,1.5 5.86,1.33"
         style="fill:#1d2a30;fill-opacity:1;fill-rule:nonzero;stroke:none"
         id="path300" /><path
         d="m 3240.09,1323.82 c 0.38,-1.28 -37.52,-13.49 -84.63,-27.27 -47.12,-13.78 -85.62,-23.9 -85.99,-22.62 -0.38,1.29 37.51,13.5 84.64,27.28 47.11,13.77 85.61,23.89 85.98,22.61"
         style="fill:#1d2a30;fill-opacity:1;fill-rule:nonzero;stroke:none"
         id="path302" /><path
         d="m 3236.62,1137.06 c -0.66,-0.01 -1.42,10.07 -1.87,26.36 -0.44,16.31 -0.52,38.84 0.18,63.72 0.7,24.89 2.03,47.39 3.39,63.64 1.35,16.26 2.67,26.27 3.33,26.22 0.68,-0.05 0.56,-10.14 0.08,-26.42 -0.54,-17.86 -1.22,-39.57 -1.96,-63.57 -0.59,-24.01 -1.14,-45.71 -1.59,-63.59 -0.43,-16.28 -0.88,-26.35 -1.56,-26.36"
         style="fill:#1d2a30;fill-opacity:1;fill-rule:nonzero;stroke:none"
         id="path304" /><path
         d="m 3396.6,1218.56 c -1.33,-0.09 -5.59,45.7 -9.5,102.28 -3.91,56.58 -6,102.52 -4.66,102.61 1.33,0.09 5.58,-45.69 9.5,-102.28 3.91,-56.57 6,-102.51 4.66,-102.61"
         style="fill:#1d2a30;fill-opacity:1;fill-rule:nonzero;stroke:none"
         id="path306" /><path
         d="m 3197.46,1427.9 c 0.03,0.66 10.4,0.92 27.13,0.81 16.72,-0.11 39.81,-0.61 65.3,-1.45 25.5,-0.84 48.57,-1.87 65.27,-2.87 16.7,-0.99 27.02,-1.93 27.01,-2.61 -0.01,-0.66 -10.36,-0.92 -27.09,-0.82 -16.72,0.12 -39.83,0.61 -65.35,1.46 -25.52,0.84 -48.6,1.87 -65.3,2.87 -16.7,0.99 -27,1.93 -26.97,2.61"
         style="fill:#1d2a30;fill-opacity:1;fill-rule:nonzero;stroke:none"
         id="path308" /><path
         d="m 3581.48,870.68 c -0.17,-0.008 -0.36,1.859 -0.58,5.41 -0.19,4.07 -0.43,9.23 -0.71,15.558 -0.61,13.512 -0.75,33.102 -0.23,57.293 0.44,24.188 2.08,52.979 4.99,84.859 3.15,31.85 7.71,66.77 14.24,103.16 6.7,36.37 14.74,70.69 23.02,101.65 8.51,30.91 17.12,58.48 25.25,81.33 8.03,22.88 15.08,41.21 20.42,53.69 2.5,5.85 4.54,10.59 6.15,14.35 1.45,3.27 2.29,4.96 2.45,4.89 0.16,-0.06 -0.38,-1.86 -1.54,-5.24 -1.39,-3.83 -3.15,-8.69 -5.31,-14.66 -4.78,-12.66 -11.31,-31.14 -18.92,-54.09 -7.69,-22.93 -15.93,-50.51 -24.18,-81.37 -8.01,-30.92 -15.89,-65.15 -22.57,-101.39 -6.5,-36.25 -11.18,-71.03 -14.57,-102.74 -3.13,-31.75 -5.13,-60.419 -6.01,-84.552 -0.95,-24.109 -1.33,-43.648 -1.3,-57.148 -0.09,-6.34 -0.15,-11.489 -0.2,-15.571 -0.11,-3.558 -0.23,-5.429 -0.4,-5.429"
         style="fill:#1d2a30;fill-opacity:1;fill-rule:nonzero;stroke:none"
         id="path310" /><path
         d="m 3602.82,1135.54 c 0.45,-0.47 -5.68,-7.27 -16.14,-17.71 -10.46,-10.43 -25.33,-24.45 -42.28,-39.32 -16.96,-14.86 -32.8,-27.76 -44.52,-36.78 -11.71,-9.01 -19.26,-14.18 -19.67,-13.67 -0.43,0.54 6.37,6.65 17.5,16.33 12.43,10.79 27.19,23.6 43.5,37.76 16.16,14.32 30.8,27.27 43.12,38.18 11.05,9.77 18.01,15.7 18.49,15.21"
         style="fill:#1d2a30;fill-opacity:1;fill-rule:nonzero;stroke:none"
         id="path312" /><path
         d="m 3730.87,1032.4 c -0.59,-0.37 -7.01,8.83 -17.19,23.8 -11.07,16.14 -24.8,36.18 -39.97,58.34 -15.51,21.95 -29.53,41.79 -40.82,57.77 -10.49,14.76 -16.89,23.97 -16.34,24.39 0.51,0.4 7.87,-8.08 19.09,-22.34 11.21,-14.25 26.22,-34.32 42.04,-57.05 15.8,-22.72 29.42,-43.78 38.88,-59.25 9.46,-15.48 14.85,-25.32 14.31,-25.66"
         style="fill:#1d2a30;fill-opacity:1;fill-rule:nonzero;stroke:none"
         id="path314" /><path
         d="m 3663.79,1356.78 c 0.72,-1.13 -41.81,-29.76 -95,-63.95 -53.2,-34.2 -96.89,-61.01 -97.62,-59.87 -0.72,1.12 41.8,29.75 95,63.95 53.18,34.19 96.89,61 97.62,59.87"
         style="fill:#1d2a30;fill-opacity:1;fill-rule:nonzero;stroke:none"
         id="path316" /><path
         d="m 3783.72,1227.33 c -0.93,-0.96 -29.74,25.66 -64.33,59.45 -34.61,33.8 -61.89,61.97 -60.96,62.92 0.94,0.96 29.74,-25.65 64.35,-59.45 34.59,-33.79 61.87,-61.96 60.94,-62.92"
         style="fill:#1d2a30;fill-opacity:1;fill-rule:nonzero;stroke:none"
         id="path318" /><path
         d="m 3813.88,1229.93 36.52,3.03 c 25.91,2.13 51.07,9.81 73.74,22.56 11.19,6.31 22.45,12.48 34.36,17.27 45.15,18.11 95.51,14.87 144.09,17.31 79.3,3.99 157.77,24.04 229.23,58.62 4.13,2 7.79,5.05 9.99,9.06 7.5,13.66 -6.42,25.83 -18.42,33.22 -61.51,37.9 -124.13,76.29 -193.89,95.11 -69.77,18.82 -148.96,15.63 -208.48,-25.33 -69.87,-48.09 -95.33,-146.86 -107.14,-230.85"
         style="fill:#f03658;fill-opacity:1;fill-rule:nonzero;stroke:none"
         id="path320" /><path
         d="m 4342.63,1362.27 c -0.08,-0.14 -2.2,0.85 -6.19,2.88 -4.37,2.3 -10.13,5.31 -17.3,9.07 -15.01,7.89 -36.62,19.54 -63.93,32.63 -27.31,12.96 -60.42,27.58 -98.94,38.14 -38.36,10.66 -82.61,16.24 -128.25,10.39 -45.45,-5.99 -87.29,-23.67 -116.91,-50.21 -29.82,-26.44 -48.02,-58.37 -60.88,-85.51 -12.83,-27.36 -20.73,-50.64 -26.48,-66.57 -2.7,-7.63 -4.86,-13.76 -6.51,-18.42 -1.51,-4.2 -2.39,-6.38 -2.55,-6.32 -0.16,0.04 0.4,2.33 1.62,6.63 1.43,4.72 3.31,10.94 5.65,18.71 5.2,16.14 12.63,39.64 25.16,67.42 12.56,27.52 30.68,60.14 61.03,87.41 30.18,27.37 73,45.59 119.24,51.66 46.41,5.96 91.39,0.12 130.07,-10.89 38.85,-10.91 72.02,-25.96 99.25,-39.35 27.22,-13.54 48.6,-25.67 63.33,-34.07 7.01,-4.09 12.61,-7.37 16.88,-9.87 3.83,-2.3 5.8,-3.58 5.71,-3.73"
         style="fill:#1d2a30;fill-opacity:1;fill-rule:nonzero;stroke:none"
         id="path322" /><path
         d="m 4254.95,1315.16 c -0.75,-1.11 -48.51,29.78 -106.65,68.99 -58.18,39.23 -104.71,71.91 -103.96,73.01 0.74,1.12 48.5,-29.77 106.66,-68.99 58.16,-39.21 104.7,-71.9 103.95,-73.01"
         style="fill:#1d2a30;fill-opacity:1;fill-rule:nonzero;stroke:none"
         id="path324" /><path
         d="m 4204.01,1459.68 c 0.23,-1.06 -15.22,-4.65 -34.77,-6.25 -19.55,-1.64 -35.47,-0.62 -35.45,0.46 0,1.16 15.74,1.97 35.03,3.58 19.31,1.57 34.95,3.35 35.19,2.21"
         style="fill:#1d2a30;fill-opacity:1;fill-rule:nonzero;stroke:none"
         id="path326" /><path
         d="m 3994.96,1486.93 c 1.15,-0.54 -5.86,-11.49 -15.67,-24.47 -9.81,-12.99 -18.69,-23.09 -19.84,-22.55 -1.15,0.53 5.86,11.48 15.66,24.47 9.81,12.98 18.69,23.08 19.85,22.55"
         style="fill:#1d2a30;fill-opacity:1;fill-rule:nonzero;stroke:none"
         id="path328" /><path
         d="m 4037.74,1287.03 c -0.33,-0.55 -9.18,4.09 -22.98,12.46 -13.8,8.37 -32.44,20.64 -52.36,35.1 -19.91,14.48 -37.48,28.15 -50.11,38.16 -12.61,10.03 -20.22,16.47 -19.82,17 0.39,0.53 8.75,-4.93 21.88,-14.26 14.33,-10.41 31.69,-23.02 50.9,-36.98 19.85,-14.41 38.1,-27.06 51.37,-36.14 13.28,-9.08 21.49,-14.75 21.12,-15.34"
         style="fill:#1d2a30;fill-opacity:1;fill-rule:nonzero;stroke:none"
         id="path330" /><path
         d="m 3867.64,1074.8 c -34.82,9.2 -76.34,-24.68 -83.51,-59.98 -7.18,-35.3 6.05,-71.398 21.55,-103.922 34.32,-71.98 81.66,-138.75 144.02,-188.437 62.37,-49.691 140.48,-81.481 220.22,-81.07 -14.72,68.39 3.9,139.839 -4.31,209.308 -7.17,60.629 -35.44,118.571 -78.83,161.531 -43.39,42.96 -101.6,70.65 -162.3,77.21 -22.24,2.4 -47.97,5.89 -56.84,-14.64"
         style="fill:#f03658;fill-opacity:1;fill-rule:nonzero;stroke:none"
         id="path332" /><path
         d="m 4169.92,641.391 c -0.08,-0.141 -1.78,0.648 -4.95,2.308 -3.15,1.719 -7.69,4.481 -13.03,8.75 -10.94,8.289 -23.46,24.289 -34.39,45.981 -5.55,10.789 -11.75,22.492 -17.83,35.449 -5.88,13.012 -12.15,26.871 -18.73,41.422 -6.65,14.508 -13.95,29.578 -23.03,44.277 -9.03,14.711 -19.77,29.102 -31.68,43.09 -23.84,28.012 -49.43,52.242 -71.61,75.383 -22.29,23.058 -41.04,45.277 -54.6,65.509 -13.68,20.16 -21.97,38.22 -26.68,50.96 -2.23,6.41 -3.85,11.44 -4.64,14.93 -0.88,3.47 -1.26,5.3 -1.11,5.35 0.46,0.13 2.43,-7.11 7.51,-19.6 5.21,-12.41 13.86,-30.01 27.76,-49.7 13.76,-19.77 32.59,-41.539 54.97,-64.328 22.27,-22.902 48,-47.07 72.1,-75.363 12.03,-14.129 22.91,-28.75 32.04,-43.75 9.18,-14.989 16.47,-30.289 23.03,-44.918 6.45,-14.602 12.57,-28.512 18.32,-41.571 5.85,-12.902 11.89,-24.718 17.23,-35.558 10.49,-21.75 22.2,-37.5 32.55,-46.121 10.18,-8.782 17.06,-12.032 16.77,-12.5"
         style="fill:#1d2a30;fill-opacity:1;fill-rule:nonzero;stroke:none"
         id="path334" /><path
         d="m 3989.82,698.23 c -0.62,0.122 0.47,9.09 3.2,23.438 2.73,14.344 7.2,34.031 13.24,55.48 6.05,21.461 12.51,40.582 17.67,54.243 5.16,13.66 8.91,21.89 9.5,21.66 0.66,-0.231 -1.95,-8.871 -6.26,-22.77 -4.31,-13.902 -10.23,-33.101 -16.25,-54.441 -6,-21.352 -10.98,-40.801 -14.56,-54.918 -3.57,-14.102 -5.86,-22.832 -6.54,-22.692"
         style="fill:#1d2a30;fill-opacity:1;fill-rule:nonzero;stroke:none"
         id="path336" /><path
         d="m 4163.33,866.09 c -0.22,-0.66 -9.54,1.719 -24.54,5.64 -15,3.918 -35.73,9.282 -58.78,14.489 -23.07,5.179 -44.1,9.23 -59.33,12.109 -15.24,2.891 -24.68,4.731 -24.58,5.422 0.09,0.629 9.7,-0.012 25.13,-2.031 15.42,-2.039 36.66,-5.559 59.84,-10.778 23.17,-5.222 43.87,-11.14 58.67,-15.91 14.82,-4.793 23.77,-8.32 23.59,-8.941"
         style="fill:#1d2a30;fill-opacity:1;fill-rule:nonzero;stroke:none"
         id="path338" /><path
         d="m 3860.58,817.32 c -0.63,0.121 0.71,10.5 3.77,27.129 3.07,16.621 7.94,39.481 14.45,64.449 6.53,24.981 13.45,47.313 18.9,63.301 5.46,16.012 9.36,25.719 9.97,25.512 0.66,-0.211 -2.09,-10.301 -6.7,-26.52 -4.6,-16.23 -10.97,-38.632 -17.48,-63.511 -6.48,-24.879 -11.87,-47.539 -15.79,-63.942 -3.91,-16.41 -6.43,-26.558 -7.12,-26.418"
         style="fill:#1d2a30;fill-opacity:1;fill-rule:nonzero;stroke:none"
         id="path340" /><path
         d="m 4083.42,1012.38 c -0.14,-1.33 -43.62,2.19 -97.1,7.86 -53.49,5.67 -96.73,11.35 -96.6,12.68 0.15,1.32 43.62,-2.19 97.11,-7.87 53.49,-5.66 96.73,-11.34 96.59,-12.67"
         style="fill:#1d2a30;fill-opacity:1;fill-rule:nonzero;stroke:none"
         id="path342" /><path
         d="m 4051.57,485.121 c 0,-1.332 -152.83,-2.422 -341.33,-2.422 -188.54,0 -341.36,1.09 -341.36,2.422 0,1.34 152.82,2.43 341.36,2.43 188.5,0 341.33,-1.09 341.33,-2.43"
         style="fill:#365462;fill-opacity:1;fill-rule:nonzero;stroke:none"
         id="path344" /><path
         d="m 3945.24,288.441 c 0,-1.332 -102.98,-2.421 -229.98,-2.421 -127.04,0 -229.99,1.089 -229.99,2.421 0,1.34 102.95,2.43 229.99,2.43 127,0 229.98,-1.09 229.98,-2.43"
         style="fill:#365462;fill-opacity:1;fill-rule:nonzero;stroke:none"
         id="path346" /><path
         d="m 3941.25,260.32 c 0,-1.34 -101.2,-2.422 -225.98,-2.422 -124.82,0 -225.99,1.082 -225.99,2.422 0,1.34 101.17,2.43 225.99,2.43 124.78,0 225.98,-1.09 225.98,-2.43"
         style="fill:#365462;fill-opacity:1;fill-rule:nonzero;stroke:none"
         id="path348" /><path
         d="m 3949.25,311.629 c 0,-1.348 -106.51,-2.43 -237.88,-2.43 -131.4,0 -237.9,1.082 -237.9,2.43 0,1.34 106.5,2.422 237.9,2.422 131.37,0 237.88,-1.082 237.88,-2.422"
         style="fill:#365462;fill-opacity:1;fill-rule:nonzero;stroke:none"
         id="path350" /><path
         d="m 2582.52,4322.71 c -89.25,19.88 -203.72,-42.03 -234.56,-125.43 -30.85,-83.4 2.62,-186.6 69.78,-244.88 -52.4,-67.39 -54.59,-167.66 -10.3,-240.64 44.28,-72.99 130.16,-116.82 215.53,-116.3 85.38,0.52 168.2,42.99 223.73,107.83 72.31,-35.64 164.42,-26.86 228.7,21.82 64.27,48.67 97.7,134.94 83,214.21 101.17,36.92 156.76,166.22 113.95,265.03 -42.8,98.81 -175.15,146.7 -271.27,98.14 2.08,107.72 -91.86,208.22 -199.46,213.42 -107.61,5.2 -210.8,-85.79 -219.1,-193.2 6.63,1.08 -6.64,-1.07 0,0"
         style="fill:#fcfdfd;fill-opacity:1;fill-rule:nonzero;stroke:none"
         id="path352" /><path
         d="m 2582.52,4322.71 c 0,0 -0.42,-0.14 -1.6,-0.37 l -0.22,-0.04 -0.06,-0.01 -0.02,0.23 0.12,0.03 0.55,0.1 1.32,0.24 1.66,0.29 -1.72,-0.68 -0.31,-0.14 0.06,0.37 c 1.32,8.57 1.67,31.25 15.36,62.24 6.55,15.51 16.64,32.66 30.57,50.32 13.97,17.62 32.81,34.99 56.33,49.89 23.45,14.87 52.29,26.75 84.97,30.77 4.08,0.46 8.2,0.92 12.35,1.39 4.19,0.04 8.41,0.07 12.67,0.11 8.54,0.53 17.12,-1.19 25.9,-1.84 17.27,-3.15 35.16,-7.41 52.08,-15.59 4.35,-1.76 8.61,-3.79 12.7,-6.22 4.14,-2.34 8.4,-4.54 12.52,-7.03 7.94,-5.48 16.29,-10.62 23.73,-17.2 7.93,-6 14.82,-13.34 22.15,-20.4 6.58,-7.74 13.68,-15.27 19.44,-23.99 24.65,-33.59 40.32,-76.84 40.12,-122.73 l -3.07,1.93 c 41.82,20.92 93.52,24.93 142.21,11.16 48.47,-13.53 95.58,-44.78 123.13,-92.2 27.92,-47.27 30.73,-108.49 11.26,-162.29 -9.62,-27.01 -24.58,-52.55 -44.43,-74.25 -19.8,-21.66 -44.72,-39.42 -73.01,-49.89 l 1.65,2.88 c 7.67,-41.38 2.38,-85.72 -14.49,-125.86 -16.81,-40.06 -45.38,-76.52 -83.36,-100.48 -65.69,-41.68 -151.07,-45.02 -217.53,-12.47 l 3.1,0.63 c -48.02,-55.55 -113.81,-93.54 -182.7,-104.81 -68.91,-11.98 -139.29,5.62 -192.65,42.65 -26.74,18.51 -49.41,41.84 -65.99,68.34 -16.49,26.54 -26.88,56.01 -30.87,85.52 -4.39,29.5 -2.43,59.02 4.26,86.48 6.86,27.45 19.28,52.63 35.47,73.84 l 0.26,-2.73 c -32.51,28.52 -54.59,64.64 -67.73,101.06 -6.69,18.24 -10.63,36.86 -12.57,55.05 -1.9,18.19 -1.83,36.11 0.94,53.08 4.81,33.99 19.14,64.22 38.7,86.2 19.16,22.4 41.06,38.68 62.08,50.51 21.09,11.85 41.45,19.21 59.47,23.88 18.09,4.53 33.9,5.96 46.63,6.17 12.73,-0.06 22.47,-0.85 28.87,-2.25 6.43,-1.15 9.7,-1.89 9.7,-1.89 0,0 -3.35,0.35 -9.8,1.3 -6.39,1.2 -16.1,1.81 -28.75,1.67 -12.65,-0.39 -28.32,-1.99 -46.23,-6.66 -17.83,-4.81 -37.97,-12.27 -58.79,-24.16 -20.74,-11.87 -42.32,-28.13 -61.1,-50.32 -19.18,-21.82 -33.02,-51.41 -37.63,-84.91 -2.66,-16.7 -2.65,-34.34 -0.7,-52.25 1.98,-17.91 5.92,-36.25 12.58,-54.21 13.07,-35.85 34.96,-71.36 66.95,-99.26 l 1.41,-1.23 -1.15,-1.5 c -15.77,-20.8 -27.87,-45.48 -34.53,-72.41 -6.49,-26.94 -8.36,-55.91 -3.97,-84.83 3.96,-28.94 14.22,-57.79 30.38,-83.71 16.29,-25.92 38.54,-48.75 64.8,-66.88 52.45,-36.26 121.52,-53.46 189.14,-41.62 67.63,11.11 132.41,48.56 179.6,103.24 l 1.31,1.51 1.8,-0.88 c 64.74,-31.72 148.41,-28.44 212.45,12.25 36.99,23.33 64.91,58.92 81.37,98.09 16.5,39.24 21.68,82.59 14.23,122.92 l -0.41,2.12 2.05,0.75 c 55.27,20.49 95.86,68.45 114.49,121 19.07,52.6 16.35,112.26 -10.72,158.2 -26.71,46.18 -72.75,76.91 -120.21,90.23 -47.69,13.58 -98.24,9.73 -139.06,-10.55 l -3.09,-1.54 0.02,3.47 c 0.29,44.8 -14.91,87.3 -39.04,120.38 -5.65,8.6 -12.61,16.01 -19.05,23.66 -7.2,6.96 -13.95,14.22 -21.73,20.13 -7.3,6.51 -15.5,11.58 -23.28,17.01 -4.06,2.46 -8.24,4.64 -12.3,6.95 -4.01,2.42 -8.19,4.43 -12.47,6.17 -16.61,8.11 -34.17,12.35 -51.13,15.52 -8.63,0.68 -17.05,2.41 -25.44,1.92 -4.19,-0.01 -8.34,-0.03 -12.45,-0.05 -4.1,-0.44 -8.15,-0.88 -12.17,-1.32 -32.17,-3.81 -60.69,-15.36 -83.98,-29.93 -23.33,-14.59 -42.1,-31.66 -56.07,-49.02 -13.93,-17.39 -24.1,-34.3 -30.75,-49.62 -13.93,-30.59 -14.67,-53.11 -16.38,-61.65 l -0.24,0.23 1.85,-0.11 -1.67,-0.24 -1.33,-0.19 -0.55,-0.08 -0.13,-0.01 -0.05,0.23 0.06,0.01 0.23,0.02 c 1.18,0.16 1.63,0.16 1.63,0.16"
         style="fill:#1d2a30;fill-opacity:1;fill-rule:nonzero;stroke:none"
         id="path354" /><path
         d="m 2750.45,3881.48 c 20.98,-11.62 45.06,-17.03 68.58,-13.77 27.72,3.83 53.67,19.98 71.2,44.31 16.62,23.06 23.41,50.98 18.63,76.57 -4.81,25.84 -21.31,49.37 -45.27,64.59 -19.09,12.18 -41.19,18.03 -62.75,17.03 l 1.84,90.28 c 0.19,8.82 -6.82,16.13 -15.65,16.31 -8.83,0.17 -16.14,-6.83 -16.31,-15.66 l -2.23,-109.15 c -0.1,-5.01 2.15,-9.77 6.08,-12.88 3.89,-3.1 9.08,-4.18 13.93,-2.91 19.02,4.95 40.11,1.34 57.95,-10.01 16.5,-10.47 27.79,-26.31 30.99,-43.45 3.18,-17.06 -1.61,-36.02 -13.15,-52.04 -12.44,-17.26 -30.53,-28.68 -49.64,-31.32 -38.01,-5.27 -79.79,22.9 -91.24,61.47 -2.5,8.47 -11.38,13.29 -19.86,10.79 -8.46,-2.51 -13.29,-11.41 -10.78,-19.87 8.95,-30.23 30.76,-55.38 57.68,-70.29"
         style="fill:#f03658;fill-opacity:1;fill-rule:nonzero;stroke:none"
         id="path356" /><path
         d="m 2808.73,4226.05 c 0.45,9.9 -7.2,18.28 -17.09,18.74 -9.9,0.45 -18.28,-7.2 -18.74,-17.09 -0.45,-9.9 7.19,-18.29 17.09,-18.74 9.89,-0.46 18.28,7.2 18.74,17.09"
         style="fill:#f03658;fill-opacity:1;fill-rule:nonzero;stroke:none"
         id="path358" /><path
         d="m 2214.8,3822.45 c -45.44,5.06 -91.39,-31.64 -96.51,-77.07 -5.11,-45.43 31.52,-91.43 76.94,-96.62 45.43,-5.19 91.48,31.38 96.73,76.8 5.24,45.42 -31.25,91.52 -76.66,96.84"
         style="fill:#fcfdfd;fill-opacity:1;fill-rule:nonzero;stroke:none"
         id="path360" /><path
         d="m 2215.3,3822.4 c 0,0 7.87,0.33 20.98,-4.54 12.93,-4.76 31.06,-16.11 44.52,-37.5 6.57,-10.63 11.95,-23.71 13.43,-38.54 1.37,-14.76 -1.25,-31.19 -9.31,-45.91 -3.84,-7.43 -8.9,-14.45 -15,-20.71 -5.98,-6.38 -13,-12.04 -20.87,-16.59 -15.5,-9.45 -34.72,-14.4 -54.1,-12.44 -19.33,2.45 -36.95,11.61 -49.93,24.3 -6.64,6.22 -12.21,13.32 -16.6,20.87 -4.53,7.48 -7.88,15.46 -9.94,23.56 -4.55,16.16 -3.4,32.76 1.26,46.83 4.79,14.12 12.99,25.65 21.78,34.53 17.93,17.8 38.16,24.78 51.82,26.5 13.87,1.79 21.46,-0.31 21.46,-0.31 -0.02,-0.64 -7.71,0.67 -21.14,-1.69 -13.22,-2.28 -32.59,-9.62 -49.51,-27.08 -8.3,-8.7 -15.95,-19.86 -20.31,-33.3 -4.21,-13.4 -5.16,-28.96 -0.73,-44.23 2.01,-7.64 5.24,-15.19 9.58,-22.26 4.21,-7.14 9.53,-13.86 15.85,-19.73 12.35,-11.99 28.97,-20.52 47,-22.81 18.07,-1.82 36.18,2.74 50.92,11.65 7.47,4.29 14.17,9.63 19.87,15.64 5.82,5.91 10.67,12.54 14.35,19.53 7.75,13.87 10.34,29.25 9.25,43.25 -1.22,14.07 -6.15,26.67 -12.28,37.02 -12.55,20.83 -29.76,32.34 -42.14,37.54 -12.54,5.32 -20.33,5.79 -20.21,6.42"
         style="fill:#1d2a30;fill-opacity:1;fill-rule:nonzero;stroke:none"
         id="path362" /><path
         d="m 2044.56,3632.25 c -19.6,2.18 -39.42,-13.66 -41.62,-33.25 -2.21,-19.59 13.58,-39.43 33.17,-41.66 19.6,-2.24 39.46,13.53 41.72,33.12 2.27,19.59 -13.47,39.47 -33.06,41.76"
         style="fill:#fcfdfd;fill-opacity:1;fill-rule:nonzero;stroke:none"
         id="path364" /><path
         d="m 2044.77,3632.22 c 0,0.23 3.45,0.55 9.27,-1.42 5.73,-1.93 13.81,-6.78 19.87,-16.16 2.96,-4.67 5.41,-10.45 6.13,-17.06 0.66,-6.58 -0.47,-13.97 -4.04,-20.55 -6.77,-13.09 -22.4,-24.07 -40.17,-22.28 -17.73,2.26 -30.49,16.48 -34.13,30.75 -2,7.23 -1.44,14.68 0.69,20.94 2.19,6.29 5.88,11.36 9.81,15.24 8.02,7.77 17,10.68 23.01,11.27 6.11,0.6 9.4,-0.48 9.35,-0.71 -0.04,-0.47 -3.36,-0.11 -9.03,-1.29 -5.58,-1.15 -13.69,-4.41 -20.69,-11.85 -6.98,-7.17 -12.37,-19.48 -8.51,-32.35 3.39,-12.53 15.02,-24.98 30.09,-26.83 15.09,-1.59 29.22,7.92 35.35,19.37 6.65,11.66 4.18,24.86 -1,33.42 -5.15,8.83 -12.32,13.84 -17.5,16.21 -5.25,2.42 -8.57,2.83 -8.5,3.3"
         style="fill:#1d2a30;fill-opacity:1;fill-rule:nonzero;stroke:none"
         id="path366" /></g></g></svg>
