<svg id="Layer_4" data-name="Layer 4" xmlns="http://www.w3.org/2000/svg" viewBox="0 0 75.71 71.94"><defs><style>.cls-1{fill:#ff3a65;}.cls-2{fill:#1f2f6a;}.cls-3{fill:#e83a65;}</style></defs><title>digyatanew</title><path class="cls-1" d="M233.29,493.22l-7.56,7.56c5.7,6.89,14.13,15.74,14.13,25.39s-8.43,18.49-14.13,25.38l7.56,7.57a8.61,8.61,0,0,0,12.17,0l26.87-26.87a8.61,8.61,0,0,0,0-12.17l-26.87-26.86A8.61,8.61,0,0,0,233.29,493.22Z" transform="translate(-199.63 -490.2)"/><path class="cls-1" d="M239.37,562.14a9,9,0,0,1-6.43-2.67l-7.89-7.88.29-.35c.61-.74,1.24-1.49,1.9-2.26,5.4-6.4,12.12-14.37,12.12-22.81s-6.72-16.41-12.13-22.82l-1.89-2.25-.29-.35,7.89-7.89a9.11,9.11,0,0,1,12.87,0l26.87,26.87a9.09,9.09,0,0,1,0,12.87l-26.87,26.87A9,9,0,0,1,239.37,562.14Zm-13-10.62,7.25,7.24a8.08,8.08,0,0,0,11.45,0L272,531.9a8.09,8.09,0,0,0,0-11.46L245.1,493.57a8.1,8.1,0,0,0-11.45,0l-7.25,7.24,1.6,1.9c5.51,6.53,12.36,14.65,12.36,23.46S233.51,543.1,228,549.62Z" transform="translate(-199.63 -490.2)"/><path class="cls-2" d="M214.35,540.17c2.86-3.94,9.55-8.77,9.55-14s-6.69-10.07-9.55-14l-14,14Z" transform="translate(-199.63 -490.2)"/><path class="cls-2" d="M214.41,540.94l-14.78-14.77,14.78-14.78.34.48a39.55,39.55,0,0,0,3.24,3.67c3,3.17,6.41,6.75,6.41,10.63S221,533.63,218,536.79a38.32,38.32,0,0,0-3.24,3.68Zm-13.36-14.77,13.24,13.24c.83-1,1.87-2.15,3-3.31,2.88-3,6.14-6.45,6.14-9.93s-3.26-6.91-6.14-9.94c-1.1-1.15-2.14-2.25-3-3.31Z" transform="translate(-199.63 -490.2)"/><path class="cls-3" d="M274.35,525.17a8,8,0,0,0-2.38-5.73L245.1,492.57a8,8,0,0,0-5.73-2.37,7.87,7.87,0,0,0-1.94.24,9,9,0,0,1,4.37,2.42l26.87,26.87a9.09,9.09,0,0,1,0,12.87L241.8,559.47c-.15.15-.3.28-.46.42a8,8,0,0,0,3.76-2.13L272,530.9A8.08,8.08,0,0,0,274.35,525.17Z" transform="translate(-199.63 -490.2)"/></svg>