<svg id="Layer_1" data-name="Layer 1" xmlns="http://www.w3.org/2000/svg" xmlns:xlink="http://www.w3.org/1999/xlink" viewBox="0 0 218.31 71.94"><defs><style>.cls-1{fill:none;}.cls-2{fill:#ef4067;}.cls-3{fill:#25326a;}.cls-4{fill:#e83c66;}.cls-5{clip-path:url(#clip-path);}.cls-6{fill:#24336a;}.cls-7{fill:#25336a;}.cls-8{fill:#26336a;}.cls-9{fill:#27336a;}.cls-10{fill:#28336a;}.cls-11{fill:#29336a;}.cls-12{fill:#2a336a;}.cls-13{fill:#2b336a;}.cls-14{fill:#2c336a;}.cls-15{fill:#2d336a;}.cls-16{fill:#2e336a;}.cls-17{fill:#2f336a;}.cls-18{fill:#30336a;}.cls-19{fill:#31336a;}.cls-20{fill:#32336a;}.cls-21{fill:#33346a;}.cls-22{fill:#34346a;}.cls-23{fill:#35346a;}.cls-24{fill:#36346a;}.cls-25{fill:#37346a;}.cls-26{fill:#38346a;}.cls-27{fill:#39346a;}.cls-28{fill:#3a346a;}.cls-29{fill:#3b346a;}.cls-30{fill:#3c346a;}.cls-31{fill:#3d346a;}.cls-32{fill:#3e346a;}.cls-33{fill:#3f346a;}.cls-34{fill:#40346a;}.cls-35{fill:#41346a;}.cls-36{fill:#42346a;}.cls-37{fill:#43346a;}.cls-38{fill:#44346a;}.cls-39{fill:#45346a;}.cls-40{fill:#45356a;}.cls-41{fill:#46356a;}.cls-42{fill:#47356a;}.cls-43{fill:#48356a;}.cls-44{fill:#49356a;}.cls-45{fill:#4a356a;}.cls-46{fill:#4b356a;}.cls-47{fill:#4c356a;}.cls-48{fill:#4d356a;}.cls-49{fill:#4e356a;}.cls-50{fill:#4f356a;}.cls-51{fill:#50356a;}.cls-52{fill:#51356a;}.cls-53{fill:#52356a;}.cls-54{fill:#53366a;}.cls-55{fill:#54366a;}.cls-56{fill:#55366a;}.cls-57{fill:#56366a;}.cls-58{fill:#57366a;}.cls-59{fill:#58366a;}.cls-60{fill:#59366a;}.cls-61{fill:#5a366a;}.cls-62{fill:#5b366a;}.cls-63{fill:#5c366a;}.cls-64{fill:#5d366a;}.cls-65{fill:#5e366a;}.cls-66{fill:#5f366a;}.cls-67{fill:#60366a;}.cls-68{fill:#61366a;}.cls-69{fill:#62376a;}.cls-70{fill:#63376a;}.cls-71{fill:#64376a;}.cls-72{fill:#65376a;}.cls-73{fill:#66376a;}.cls-74{fill:#67376a;}.cls-75{fill:#68376a;}.cls-76{fill:#69376a;}.cls-77{fill:#6a376a;}.cls-78{fill:#6b376a;}.cls-79{fill:#6c376a;}.cls-80{fill:#6d376a;}.cls-81{fill:#6e386a;}.cls-82{fill:#6f386a;}.cls-83{fill:#70386a;}.cls-84{fill:#71386a;}.cls-85{fill:#72386a;}.cls-86{fill:#73386a;}.cls-87{fill:#74386a;}.cls-88{fill:#75386a;}.cls-89{fill:#76386a;}.cls-90{fill:#77386a;}.cls-91{fill:#78386a;}.cls-92{fill:#79386a;}.cls-93{fill:#7a386a;}.cls-94{fill:#7b386a;}.cls-95{fill:#7c396a;}.cls-96{fill:#7d396a;}.cls-97{fill:#7e396a;}.cls-98{fill:#7f396a;}.cls-99{fill:#80396a;}.cls-100{fill:#81396a;}.cls-101{fill:#82396a;}.cls-102{fill:#83396a;}.cls-103{fill:#84396a;}.cls-104{fill:#85396a;}.cls-105{fill:#86396a;}.cls-106{fill:#873969;}.cls-107{fill:#873a69;}.cls-108{fill:#883a69;}.cls-109{fill:#893a69;}.cls-110{fill:#8a3a69;}.cls-111{fill:#8b3a69;}.cls-112{fill:#8c3a69;}.cls-113{fill:#8d3a69;}.cls-114{fill:#8e3a69;}.cls-115{fill:#8f3a69;}.cls-116{fill:#903a69;}.cls-117{fill:#913a69;}.cls-118{fill:#923a69;}.cls-119{fill:#933a69;}.cls-120{fill:#943a69;}.cls-121{fill:#953a69;}.cls-122{fill:#963b69;}.cls-123{fill:#973b69;}.cls-124{fill:#983b69;}.cls-125{fill:#993b69;}.cls-126{fill:#9a3b69;}.cls-127{fill:#9b3b69;}.cls-128{fill:#9c3b69;}.cls-129{fill:#9d3b69;}.cls-130{fill:#9e3b69;}.cls-131{fill:#9f3b69;}.cls-132{fill:#a03b69;}.cls-133{fill:#a13b69;}.cls-134{fill:#a23b69;}.cls-135{fill:#a33c69;}.cls-136{fill:#a43c69;}.cls-137{fill:#a53c69;}.cls-138{fill:#a63c69;}.cls-139{fill:#a73c69;}.cls-140{fill:#a83c69;}.cls-141{fill:#a93c69;}.cls-142{fill:#aa3c69;}.cls-143{fill:#aa3c68;}.cls-144{fill:#ab3c68;}.cls-145{fill:#ac3c68;}.cls-146{fill:#ad3c68;}.cls-147{fill:#ae3c68;}.cls-148{fill:#af3c68;}.cls-149{fill:#b03c68;}.cls-150{fill:#b13d68;}.cls-151{fill:#b23d68;}.cls-152{fill:#b33d68;}.cls-153{fill:#b43d68;}.cls-154{fill:#b53d68;}.cls-155{fill:#b63d68;}.cls-156{fill:#b73d68;}.cls-157{fill:#b83d68;}.cls-158{fill:#b93d68;}.cls-159{fill:#ba3d68;}.cls-160{fill:#bb3d68;}.cls-161{fill:#bc3d68;}.cls-162{fill:#bd3d68;}.cls-163{fill:#be3d68;}.cls-164{fill:#bf3d68;}.cls-165{fill:#c03e68;}.cls-166{fill:#c13e68;}.cls-167{fill:#c23e68;}.cls-168{fill:#c33e68;}.cls-169{fill:#c43e68;}.cls-170{fill:#c53e68;}.cls-171{fill:#c63e68;}.cls-172{fill:#c73e68;}.cls-173{fill:#c83e68;}.cls-174{fill:#c93e68;}.cls-175{fill:#ca3e68;}.cls-176{fill:#cb3e68;}.cls-177{fill:#cc3f68;}.cls-178{fill:#cd3f68;}.cls-179{fill:#ce3f67;}.cls-180{fill:#cf3f67;}.cls-181{fill:#d03f67;}.cls-182{fill:#d13f67;}.cls-183{fill:#d23f67;}.cls-184{fill:#d33f67;}.cls-185{fill:#d43f67;}.cls-186{fill:#d53f67;}.cls-187{fill:#d63f67;}.cls-188{fill:#d73f67;}.cls-189{fill:#d83f67;}.cls-190{fill:#d93f67;}.cls-191{fill:#d94067;}.cls-192{fill:#da4067;}.cls-193{fill:#db4067;}.cls-194{fill:#dc4067;}.cls-195{fill:#dd4067;}.cls-196{fill:#de4067;}.cls-197{fill:#df4067;}.cls-198{fill:#e04067;}.cls-199{fill:#e14067;}.cls-200{fill:#e24067;}.cls-201{fill:#e34167;}.cls-202{fill:#e44167;}.cls-203{fill:#e54167;}.cls-204{fill:#e64167;}.cls-205{fill:#e74167;}.cls-206{fill:#e84167;}.cls-207{fill:#e94168;}.cls-208{fill:#ea4168;}.cls-209{fill:#ec4168;}.cls-210{fill:#ed4168;}.cls-211{fill:#ef4268;}.cls-212{fill:#f2f2f2;}</style><clipPath id="clip-path" transform="translate(-188.34 -384.53)"><rect class="cls-1" x="275.12" y="434.85" width="75" height="16.5"/></clipPath></defs><title>digyatafencylogo</title><path class="cls-2" d="M222,387.55l-7.56,7.56c5.7,6.9,14.13,15.74,14.13,25.39s-8.43,18.49-14.13,25.39l7.56,7.56a8.61,8.61,0,0,0,12.17,0L261,426.58a8.59,8.59,0,0,0,0-12.16l-26.87-26.87A8.61,8.61,0,0,0,222,387.55Z" transform="translate(-188.34 -384.53)"/><path class="cls-2" d="M228.08,456.47a9,9,0,0,1-6.43-2.67l-7.89-7.88.29-.35c.61-.73,1.24-1.49,1.9-2.26,5.4-6.4,12.12-14.37,12.12-22.81s-6.72-16.41-12.13-22.81l-1.89-2.26-.29-.35,7.89-7.88a9.09,9.09,0,0,1,12.87,0l26.87,26.86a9.1,9.1,0,0,1,0,12.88L234.52,453.8A9,9,0,0,1,228.08,456.47Zm-13-10.61,7.25,7.24a8.1,8.1,0,0,0,11.45,0l26.87-26.87a8.09,8.09,0,0,0,0-11.46L233.81,387.9a8.1,8.1,0,0,0-11.45,0l-7.25,7.24c.52.62,1,1.26,1.6,1.9,5.51,6.53,12.36,14.65,12.36,23.46s-6.85,16.93-12.36,23.46C216.16,444.6,215.63,445.24,215.11,445.86Z" transform="translate(-188.34 -384.53)"/><path class="cls-3" d="M203.06,434.5c2.86-3.93,9.55-8.77,9.55-14s-6.69-10.07-9.55-14l-14,14Z" transform="translate(-188.34 -384.53)"/><path class="cls-3" d="M203.12,435.27,188.34,420.5l14.78-14.77.34.47a40.9,40.9,0,0,0,3.24,3.68c3,3.16,6.41,6.74,6.41,10.62s-3.41,7.46-6.41,10.62a40.9,40.9,0,0,0-3.24,3.68ZM189.76,420.5,203,433.75c.83-1.06,1.87-2.16,3-3.32,2.88-3,6.14-6.45,6.14-9.93s-3.26-6.91-6.14-9.93c-1.1-1.16-2.14-2.26-3-3.31Z" transform="translate(-188.34 -384.53)"/><path class="cls-4" d="M263.06,419.5a8.07,8.07,0,0,0-2.38-5.73L233.81,386.9a8,8,0,0,0-5.73-2.37,8.38,8.38,0,0,0-1.94.24,9,9,0,0,1,4.37,2.43l26.87,26.86a9.1,9.1,0,0,1,0,12.88L230.51,453.8a6,6,0,0,1-.46.42,8,8,0,0,0,3.76-2.12l26.87-26.87A8.07,8.07,0,0,0,263.06,419.5Z" transform="translate(-188.34 -384.53)"/><path class="cls-3" d="M281.06,411.7V395.23l2.93,5c4.27,0,7.6-1.44,7.6,3.24s-3.33,3.23-7.6,3.23ZM275.12,417H284a13.5,13.5,0,0,0,0-27h-8.91Z" transform="translate(-188.34 -384.53)"/><path class="cls-3" d="M297.77,412.37l7.26,4.12a.52.52,0,0,0,.78-.48l-.88-15.73a1.38,1.38,0,0,0-1.39-1.31h-.46a1.39,1.39,0,0,0-1.29.86l-4.54,11A1.2,1.2,0,0,0,297.77,412.37ZM304,397.56c.91-.2,1.49.15,1.89-.69.94-1.94,1.17-5.8-.74-6.22-1.67-.36-2.83,2.86-3.2,4.57C301.45,397.32,301.56,398.09,304,397.56Z" transform="translate(-188.34 -384.53)"/><path class="cls-3" d="M319.32,412.18a4.28,4.28,0,1,1,3.55-3.58A4.27,4.27,0,0,1,319.32,412.18ZM328.54,397h-4c-1,0-1.8,2.8-1.8,3.8h0a8.26,8.26,0,0,0-5.63-2.16,9.37,9.37,0,0,0,0,18.72,8.3,8.3,0,0,0,5.72-2.25v2.38c0,3.33-5.85,5.36-8.77,5.36-2.07,0-6.65-2.13-7.32-3.93h0l-8.56-4c1.48,3.69,11.15,12.92,15.88,12.92,6.57,0,14.48-4,14.48-10.66Z" transform="translate(-188.34 -384.53)"/><path class="cls-2" d="M342.09,404.54l-2.35,6.35-2.39-6.33a8.65,8.65,0,0,0-8.09-5.59h0l7.51,18.4-4.23,10.4h0a8.91,8.91,0,0,0,8.27-5.6l9.28-23.2h0A8.53,8.53,0,0,0,342.09,404.54Z" transform="translate(-188.34 -384.53)"/><path class="cls-2" d="M359.54,412.24a4.28,4.28,0,1,1,4.28-4.27A4.25,4.25,0,0,1,359.54,412.24Zm11.3.05c-.77,0-1.58-.27-1.58-1.76V399h-4.14a1.57,1.57,0,0,0-1.57,1.57h0a7.48,7.48,0,0,0-5.13-1.93,9.37,9.37,0,0,0,0,18.72,7.54,7.54,0,0,0,6.16-3.06,6.38,6.38,0,0,0,5.54,3.06h0a1.59,1.59,0,0,0,1.52-1.61v-3.43Z" transform="translate(-188.34 -384.53)"/><path class="cls-2" d="M384,399.15V399h-4.27v-1.22A5.71,5.71,0,0,0,374,392h0V399h0a3,3,0,0,0-3,3v1.44h3v7.11a6.94,6.94,0,0,0,7.07,6.8h0A2.9,2.9,0,0,0,384,414.4v-2.11h-2.16a2.15,2.15,0,0,1-2.07-2.43v-6.44h0A4.27,4.27,0,0,0,384,399.15Z" transform="translate(-188.34 -384.53)"/><path class="cls-2" d="M394.55,412.24a4.28,4.28,0,1,1,4.28-4.27A4.25,4.25,0,0,1,394.55,412.24Zm11.3.05c-.77,0-1.58-.27-1.58-1.76v-5.85a5.71,5.71,0,0,0-5.71-5.71h0v1.57a7.48,7.48,0,0,0-5.13-1.93,9.37,9.37,0,0,0,0,18.72,7.54,7.54,0,0,0,6.16-3.06,6.38,6.38,0,0,0,5.54,3.06h0a1.59,1.59,0,0,0,1.52-1.61v-3.43Z" transform="translate(-188.34 -384.53)"/><g class="cls-5"><rect class="cls-6" x="86.78" y="50.32" height="16.5"/><rect class="cls-6" x="86.78" y="50.32" width="0.29" height="16.5"/><rect class="cls-7" x="87.07" y="50.32" width="0.29" height="16.5"/><rect class="cls-8" x="87.37" y="50.32" width="0.29" height="16.5"/><rect class="cls-9" x="87.66" y="50.32" width="0.29" height="16.5"/><rect class="cls-10" x="87.96" y="50.32" width="0.29" height="16.5"/><rect class="cls-11" x="88.25" y="50.32" width="0.29" height="16.5"/><rect class="cls-12" x="88.54" y="50.32" width="0.29" height="16.5"/><rect class="cls-13" x="88.84" y="50.32" width="0.29" height="16.5"/><rect class="cls-14" x="89.13" y="50.32" width="0.29" height="16.5"/><rect class="cls-15" x="89.43" y="50.32" width="0.29" height="16.5"/><rect class="cls-16" x="89.72" y="50.32" width="0.29" height="16.5"/><rect class="cls-17" x="90.02" y="50.32" width="0.29" height="16.5"/><rect class="cls-18" x="90.31" y="50.32" width="0.29" height="16.5"/><rect class="cls-19" x="90.6" y="50.32" width="0.29" height="16.5"/><rect class="cls-20" x="90.9" y="50.32" width="0.29" height="16.5"/><rect class="cls-21" x="91.19" y="50.32" width="0.29" height="16.5"/><rect class="cls-22" x="91.49" y="50.32" width="0.29" height="16.5"/><rect class="cls-23" x="91.78" y="50.32" width="0.29" height="16.5"/><rect class="cls-24" x="92.07" y="50.32" width="0.29" height="16.5"/><rect class="cls-25" x="92.37" y="50.32" width="0.29" height="16.5"/><rect class="cls-26" x="92.66" y="50.32" width="0.29" height="16.5"/><rect class="cls-27" x="92.96" y="50.32" width="0.29" height="16.5"/><rect class="cls-28" x="93.25" y="50.32" width="0.29" height="16.5"/><rect class="cls-28" x="93.54" y="50.32" width="0.29" height="16.5"/><rect class="cls-29" x="93.84" y="50.32" width="0.29" height="16.5"/><rect class="cls-30" x="94.13" y="50.32" width="0.29" height="16.5"/><rect class="cls-31" x="94.43" y="50.32" width="0.29" height="16.5"/><rect class="cls-32" x="94.72" y="50.32" width="0.29" height="16.5"/><rect class="cls-33" x="95.02" y="50.32" width="0.29" height="16.5"/><rect class="cls-34" x="95.31" y="50.32" width="0.29" height="16.5"/><rect class="cls-34" x="95.6" y="50.32" width="0.29" height="16.5"/><rect class="cls-35" x="95.9" y="50.32" width="0.29" height="16.5"/><rect class="cls-36" x="96.19" y="50.32" width="0.29" height="16.5"/><rect class="cls-37" x="96.49" y="50.32" width="0.29" height="16.5"/><rect class="cls-38" x="96.78" y="50.32" width="0.29" height="16.5"/><rect class="cls-39" x="97.07" y="50.32" width="0.29" height="16.5"/><rect class="cls-40" x="97.37" y="50.32" width="0.29" height="16.5"/><rect class="cls-41" x="97.66" y="50.32" width="0.29" height="16.5"/><rect class="cls-42" x="97.96" y="50.32" width="0.29" height="16.5"/><rect class="cls-43" x="98.25" y="50.32" width="0.29" height="16.5"/><rect class="cls-44" x="98.54" y="50.32" width="0.29" height="16.5"/><rect class="cls-45" x="98.84" y="50.32" width="0.29" height="16.5"/><rect class="cls-45" x="99.13" y="50.32" width="0.29" height="16.5"/><rect class="cls-46" x="99.43" y="50.32" width="0.29" height="16.5"/><rect class="cls-47" x="99.72" y="50.32" width="0.29" height="16.5"/><rect class="cls-48" x="100.02" y="50.32" width="0.29" height="16.5"/><rect class="cls-48" x="100.31" y="50.32" width="0.29" height="16.5"/><rect class="cls-49" x="100.6" y="50.32" width="0.29" height="16.5"/><rect class="cls-50" x="100.9" y="50.32" width="0.29" height="16.5"/><rect class="cls-51" x="101.19" y="50.32" width="0.29" height="16.5"/><rect class="cls-52" x="101.49" y="50.32" width="0.29" height="16.5"/><rect class="cls-52" x="101.78" y="50.32" width="0.29" height="16.5"/><rect class="cls-53" x="102.07" y="50.32" width="0.29" height="16.5"/><rect class="cls-54" x="102.37" y="50.32" width="0.29" height="16.5"/><rect class="cls-55" x="102.66" y="50.32" width="0.29" height="16.5"/><rect class="cls-55" x="102.96" y="50.32" width="0.29" height="16.5"/><rect class="cls-56" x="103.25" y="50.32" width="0.29" height="16.5"/><rect class="cls-57" x="103.54" y="50.32" width="0.29" height="16.5"/><rect class="cls-58" x="103.84" y="50.32" width="0.29" height="16.5"/><rect class="cls-58" x="104.13" y="50.32" width="0.29" height="16.5"/><rect class="cls-59" x="104.43" y="50.32" width="0.29" height="16.5"/><rect class="cls-60" x="104.72" y="50.32" width="0.29" height="16.5"/><rect class="cls-61" x="105.02" y="50.32" width="0.29" height="16.5"/><rect class="cls-61" x="105.31" y="50.32" width="0.29" height="16.5"/><rect class="cls-62" x="105.6" y="50.32" width="0.29" height="16.5"/><rect class="cls-63" x="105.9" y="50.32" width="0.29" height="16.5"/><rect class="cls-64" x="106.19" y="50.32" width="0.29" height="16.5"/><rect class="cls-64" x="106.49" y="50.32" width="0.29" height="16.5"/><rect class="cls-65" x="106.78" y="50.32" width="0.29" height="16.5"/><rect class="cls-66" x="107.07" y="50.32" width="0.29" height="16.5"/><rect class="cls-67" x="107.37" y="50.32" width="0.29" height="16.5"/><rect class="cls-67" x="107.66" y="50.32" width="0.29" height="16.5"/><rect class="cls-68" x="107.96" y="50.32" width="0.29" height="16.5"/><rect class="cls-69" x="108.25" y="50.32" width="0.29" height="16.5"/><rect class="cls-70" x="108.54" y="50.32" width="0.29" height="16.5"/><rect class="cls-70" x="108.84" y="50.32" width="0.29" height="16.5"/><rect class="cls-71" x="109.13" y="50.32" width="0.29" height="16.5"/><rect class="cls-72" x="109.43" y="50.32" width="0.29" height="16.5"/><rect class="cls-73" x="109.72" y="50.32" width="0.29" height="16.5"/><rect class="cls-73" x="110.02" y="50.32" width="0.29" height="16.5"/><rect class="cls-74" x="110.31" y="50.32" width="0.29" height="16.5"/><rect class="cls-75" x="110.6" y="50.32" width="0.29" height="16.5"/><rect class="cls-75" x="110.9" y="50.32" width="0.29" height="16.5"/><rect class="cls-76" x="111.19" y="50.32" width="0.29" height="16.5"/><rect class="cls-77" x="111.49" y="50.32" width="0.29" height="16.5"/><rect class="cls-78" x="111.78" y="50.32" width="0.29" height="16.5"/><rect class="cls-78" x="112.07" y="50.32" width="0.29" height="16.5"/><rect class="cls-79" x="112.37" y="50.32" width="0.29" height="16.5"/><rect class="cls-80" x="112.66" y="50.32" width="0.29" height="16.5"/><rect class="cls-80" x="112.96" y="50.32" width="0.29" height="16.5"/><rect class="cls-81" x="113.25" y="50.32" width="0.29" height="16.5"/><rect class="cls-82" x="113.54" y="50.32" width="0.29" height="16.5"/><rect class="cls-83" x="113.84" y="50.32" width="0.29" height="16.5"/><rect class="cls-83" x="114.13" y="50.32" width="0.29" height="16.5"/><rect class="cls-84" x="114.43" y="50.32" width="0.29" height="16.5"/><rect class="cls-85" x="114.72" y="50.32" width="0.29" height="16.5"/><rect class="cls-85" x="115.02" y="50.32" width="0.29" height="16.5"/><rect class="cls-86" x="115.31" y="50.32" width="0.29" height="16.5"/><rect class="cls-87" x="115.6" y="50.32" width="0.29" height="16.5"/><rect class="cls-87" x="115.9" y="50.32" width="0.29" height="16.5"/><rect class="cls-88" x="116.19" y="50.32" width="0.29" height="16.5"/><rect class="cls-89" x="116.49" y="50.32" width="0.29" height="16.5"/><rect class="cls-90" x="116.78" y="50.32" width="0.29" height="16.5"/><rect class="cls-90" x="117.07" y="50.32" width="0.29" height="16.5"/><rect class="cls-91" x="117.37" y="50.32" width="0.29" height="16.5"/><rect class="cls-92" x="117.66" y="50.32" width="0.29" height="16.5"/><rect class="cls-92" x="117.96" y="50.32" width="0.29" height="16.5"/><rect class="cls-93" x="118.25" y="50.32" width="0.29" height="16.5"/><rect class="cls-94" x="118.54" y="50.32" width="0.29" height="16.5"/><rect class="cls-94" x="118.84" y="50.32" width="0.29" height="16.5"/><rect class="cls-95" x="119.13" y="50.32" width="0.29" height="16.5"/><rect class="cls-96" x="119.43" y="50.32" width="0.29" height="16.5"/><rect class="cls-97" x="119.72" y="50.32" width="0.29" height="16.5"/><rect class="cls-97" x="120.02" y="50.32" width="0.29" height="16.5"/><rect class="cls-98" x="120.31" y="50.32" width="0.29" height="16.5"/><rect class="cls-99" x="120.6" y="50.32" width="0.29" height="16.5"/><rect class="cls-99" x="120.9" y="50.32" width="0.29" height="16.5"/><rect class="cls-100" x="121.19" y="50.32" width="0.29" height="16.5"/><rect class="cls-101" x="121.49" y="50.32" width="0.29" height="16.5"/><rect class="cls-101" x="121.78" y="50.32" width="0.29" height="16.5"/><rect class="cls-102" x="122.07" y="50.32" width="0.29" height="16.5"/><rect class="cls-103" x="122.37" y="50.32" width="0.29" height="16.5"/><rect class="cls-104" x="122.66" y="50.32" width="0.29" height="16.5"/><rect class="cls-104" x="122.96" y="50.32" width="0.29" height="16.5"/><rect class="cls-105" x="123.25" y="50.32" width="0.29" height="16.5"/><rect class="cls-106" x="123.54" y="50.32" width="0.29" height="16.5"/><rect class="cls-107" x="123.84" y="50.32" width="0.29" height="16.5"/><rect class="cls-108" x="124.13" y="50.32" width="0.29" height="16.5"/><rect class="cls-109" x="124.43" y="50.32" width="0.29" height="16.5"/><rect class="cls-109" x="124.72" y="50.32" width="0.29" height="16.5"/><rect class="cls-110" x="125.02" y="50.32" width="0.29" height="16.5"/><rect class="cls-111" x="125.31" y="50.32" width="0.29" height="16.5"/><rect class="cls-112" x="125.6" y="50.32" width="0.29" height="16.5"/><rect class="cls-112" x="125.9" y="50.32" width="0.29" height="16.5"/><rect class="cls-113" x="126.19" y="50.32" width="0.29" height="16.5"/><rect class="cls-114" x="126.49" y="50.32" width="0.29" height="16.5"/><rect class="cls-114" x="126.78" y="50.32" width="0.29" height="16.5"/><rect class="cls-115" x="127.07" y="50.32" width="0.29" height="16.5"/><rect class="cls-116" x="127.37" y="50.32" width="0.29" height="16.5"/><rect class="cls-117" x="127.66" y="50.32" width="0.29" height="16.5"/><rect class="cls-117" x="127.96" y="50.32" width="0.29" height="16.5"/><rect class="cls-118" x="128.25" y="50.32" width="0.29" height="16.5"/><rect class="cls-119" x="128.54" y="50.32" width="0.29" height="16.5"/><rect class="cls-119" x="128.84" y="50.32" width="0.29" height="16.5"/><rect class="cls-120" x="129.13" y="50.32" width="0.29" height="16.5"/><rect class="cls-121" x="129.43" y="50.32" width="0.29" height="16.5"/><rect class="cls-122" x="129.72" y="50.32" width="0.29" height="16.5"/><rect class="cls-122" x="130.02" y="50.32" width="0.29" height="16.5"/><rect class="cls-123" x="130.31" y="50.32" width="0.29" height="16.5"/><rect class="cls-124" x="130.6" y="50.32" width="0.29" height="16.5"/><rect class="cls-125" x="130.9" y="50.32" width="0.29" height="16.5"/><rect class="cls-125" x="131.19" y="50.32" width="0.29" height="16.5"/><rect class="cls-126" x="131.49" y="50.32" width="0.29" height="16.5"/><rect class="cls-127" x="131.78" y="50.32" width="0.29" height="16.5"/><rect class="cls-127" x="132.07" y="50.32" width="0.29" height="16.5"/><rect class="cls-128" x="132.37" y="50.32" width="0.29" height="16.5"/><rect class="cls-129" x="132.66" y="50.32" width="0.29" height="16.5"/><rect class="cls-130" x="132.96" y="50.32" width="0.29" height="16.5"/><rect class="cls-130" x="133.25" y="50.32" width="0.29" height="16.5"/><rect class="cls-131" x="133.54" y="50.32" width="0.29" height="16.5"/><rect class="cls-132" x="133.84" y="50.32" width="0.29" height="16.5"/><rect class="cls-133" x="134.13" y="50.32" width="0.29" height="16.5"/><rect class="cls-133" x="134.43" y="50.32" width="0.29" height="16.5"/><rect class="cls-134" x="134.72" y="50.32" width="0.29" height="16.5"/><rect class="cls-135" x="135.02" y="50.32" width="0.29" height="16.5"/><rect class="cls-136" x="135.31" y="50.32" width="0.29" height="16.5"/><rect class="cls-136" x="135.6" y="50.32" width="0.29" height="16.5"/><rect class="cls-137" x="135.9" y="50.32" width="0.29" height="16.5"/><rect class="cls-138" x="136.19" y="50.32" width="0.29" height="16.5"/><rect class="cls-139" x="136.49" y="50.32" width="0.29" height="16.5"/><rect class="cls-139" x="136.78" y="50.32" width="0.29" height="16.5"/><rect class="cls-140" x="137.07" y="50.32" width="0.29" height="16.5"/><rect class="cls-141" x="137.37" y="50.32" width="0.29" height="16.5"/><rect class="cls-142" x="137.66" y="50.32" width="0.29" height="16.5"/><rect class="cls-143" x="137.96" y="50.32" width="0.29" height="16.5"/><rect class="cls-144" x="138.25" y="50.32" width="0.29" height="16.5"/><rect class="cls-145" x="138.54" y="50.32" width="0.29" height="16.5"/><rect class="cls-146" x="138.84" y="50.32" width="0.29" height="16.5"/><rect class="cls-147" x="139.13" y="50.32" width="0.29" height="16.5"/><rect class="cls-147" x="139.43" y="50.32" width="0.29" height="16.5"/><rect class="cls-148" x="139.72" y="50.32" width="0.29" height="16.5"/><rect class="cls-149" x="140.02" y="50.32" width="0.29" height="16.5"/><rect class="cls-150" x="140.31" y="50.32" width="0.29" height="16.5"/><rect class="cls-150" x="140.6" y="50.32" width="0.29" height="16.5"/><rect class="cls-151" x="140.9" y="50.32" width="0.29" height="16.5"/><rect class="cls-152" x="141.19" y="50.32" width="0.29" height="16.5"/><rect class="cls-153" x="141.49" y="50.32" width="0.29" height="16.5"/><rect class="cls-153" x="141.78" y="50.32" width="0.29" height="16.5"/><rect class="cls-154" x="142.07" y="50.32" width="0.29" height="16.5"/><rect class="cls-155" x="142.37" y="50.32" width="0.29" height="16.5"/><rect class="cls-156" x="142.66" y="50.32" width="0.29" height="16.5"/><rect class="cls-157" x="142.96" y="50.32" width="0.29" height="16.5"/><rect class="cls-157" x="143.25" y="50.32" width="0.29" height="16.5"/><rect class="cls-158" x="143.54" y="50.32" width="0.29" height="16.5"/><rect class="cls-159" x="143.84" y="50.32" width="0.29" height="16.5"/><rect class="cls-160" x="144.13" y="50.32" width="0.29" height="16.5"/><rect class="cls-160" x="144.43" y="50.32" width="0.29" height="16.5"/><rect class="cls-161" x="144.72" y="50.32" width="0.29" height="16.5"/><rect class="cls-162" x="145.02" y="50.32" width="0.29" height="16.5"/><rect class="cls-163" x="145.31" y="50.32" width="0.29" height="16.5"/><rect class="cls-164" x="145.6" y="50.32" width="0.29" height="16.5"/><rect class="cls-164" x="145.9" y="50.32" width="0.29" height="16.5"/><rect class="cls-165" x="146.19" y="50.32" width="0.29" height="16.5"/><rect class="cls-166" x="146.49" y="50.32" width="0.29" height="16.5"/><rect class="cls-167" x="146.78" y="50.32" width="0.29" height="16.5"/><rect class="cls-167" x="147.07" y="50.32" width="0.29" height="16.5"/><rect class="cls-168" x="147.37" y="50.32" width="0.29" height="16.5"/><rect class="cls-169" x="147.66" y="50.32" width="0.29" height="16.5"/><rect class="cls-170" x="147.96" y="50.32" width="0.29" height="16.5"/><rect class="cls-171" x="148.25" y="50.32" width="0.29" height="16.5"/><rect class="cls-171" x="148.54" y="50.32" width="0.29" height="16.5"/><rect class="cls-172" x="148.84" y="50.32" width="0.29" height="16.5"/><rect class="cls-173" x="149.13" y="50.32" width="0.29" height="16.5"/><rect class="cls-174" x="149.43" y="50.32" width="0.29" height="16.5"/><rect class="cls-175" x="149.72" y="50.32" width="0.29" height="16.5"/><rect class="cls-175" x="150.02" y="50.32" width="0.29" height="16.5"/><rect class="cls-176" x="150.31" y="50.32" width="0.29" height="16.5"/><rect class="cls-177" x="150.6" y="50.32" width="0.29" height="16.5"/><rect class="cls-178" x="150.9" y="50.32" width="0.29" height="16.5"/><rect class="cls-179" x="151.19" y="50.32" width="0.29" height="16.5"/><rect class="cls-179" x="151.49" y="50.32" width="0.29" height="16.5"/><rect class="cls-180" x="151.78" y="50.32" width="0.29" height="16.5"/><rect class="cls-181" x="152.07" y="50.32" width="0.29" height="16.5"/><rect class="cls-182" x="152.37" y="50.32" width="0.29" height="16.5"/><rect class="cls-183" x="152.66" y="50.32" width="0.29" height="16.5"/><rect class="cls-184" x="152.96" y="50.32" width="0.29" height="16.5"/><rect class="cls-184" x="153.25" y="50.32" width="0.29" height="16.5"/><rect class="cls-185" x="153.54" y="50.32" width="0.29" height="16.5"/><rect class="cls-186" x="153.84" y="50.32" width="0.29" height="16.5"/><rect class="cls-187" x="154.13" y="50.32" width="0.29" height="16.5"/><rect class="cls-188" x="154.43" y="50.32" width="0.29" height="16.5"/><rect class="cls-189" x="154.72" y="50.32" width="0.29" height="16.5"/><rect class="cls-190" x="155.02" y="50.32" width="0.29" height="16.5"/><rect class="cls-191" x="155.31" y="50.32" width="0.29" height="16.5"/><rect class="cls-192" x="155.6" y="50.32" width="0.29" height="16.5"/><rect class="cls-193" x="155.9" y="50.32" width="0.29" height="16.5"/><rect class="cls-194" x="156.19" y="50.32" width="0.29" height="16.5"/><rect class="cls-195" x="156.49" y="50.32" width="0.29" height="16.5"/><rect class="cls-196" x="156.78" y="50.32" width="0.29" height="16.5"/><rect class="cls-197" x="157.07" y="50.32" width="0.29" height="16.5"/><rect class="cls-197" x="157.37" y="50.32" width="0.29" height="16.5"/><rect class="cls-198" x="157.66" y="50.32" width="0.29" height="16.5"/><rect class="cls-199" x="157.96" y="50.32" width="0.29" height="16.5"/><rect class="cls-200" x="158.25" y="50.32" width="0.29" height="16.5"/><rect class="cls-201" x="158.54" y="50.32" width="0.29" height="16.5"/><rect class="cls-202" x="158.84" y="50.32" width="0.29" height="16.5"/><rect class="cls-203" x="159.13" y="50.32" width="0.29" height="16.5"/><rect class="cls-204" x="159.43" y="50.32" width="0.29" height="16.5"/><rect class="cls-205" x="159.72" y="50.32" width="0.29" height="16.5"/><rect class="cls-206" x="160.02" y="50.32" width="0.29" height="16.5"/><rect class="cls-207" x="160.31" y="50.32" width="0.29" height="16.5"/><rect class="cls-208" x="160.6" y="50.32" width="0.29" height="16.5"/><rect class="cls-209" x="160.9" y="50.32" width="0.29" height="16.5"/><rect class="cls-210" x="161.19" y="50.32" width="0.29" height="16.5"/><rect class="cls-211" x="161.49" y="50.32" width="0.29" height="16.5"/><path class="cls-211" d="M350.12,451.35v0Z" transform="translate(-188.34 -384.53)"/></g><g class="cls-5"><rect class="cls-6" x="86.78" y="50.32" height="16.5"/><rect class="cls-6" x="86.78" y="50.32" width="0.29" height="16.5"/><rect class="cls-7" x="87.07" y="50.32" width="0.29" height="16.5"/><rect class="cls-8" x="87.37" y="50.32" width="0.29" height="16.5"/><rect class="cls-9" x="87.66" y="50.32" width="0.29" height="16.5"/><rect class="cls-10" x="87.96" y="50.32" width="0.29" height="16.5"/><rect class="cls-11" x="88.25" y="50.32" width="0.29" height="16.5"/><rect class="cls-12" x="88.54" y="50.32" width="0.29" height="16.5"/><rect class="cls-13" x="88.84" y="50.32" width="0.29" height="16.5"/><rect class="cls-14" x="89.13" y="50.32" width="0.29" height="16.5"/><rect class="cls-15" x="89.43" y="50.32" width="0.29" height="16.5"/><rect class="cls-16" x="89.72" y="50.32" width="0.29" height="16.5"/><rect class="cls-17" x="90.02" y="50.32" width="0.29" height="16.5"/><rect class="cls-18" x="90.31" y="50.32" width="0.29" height="16.5"/><rect class="cls-19" x="90.6" y="50.32" width="0.29" height="16.5"/><rect class="cls-20" x="90.9" y="50.32" width="0.29" height="16.5"/><rect class="cls-21" x="91.19" y="50.32" width="0.29" height="16.5"/><rect class="cls-22" x="91.49" y="50.32" width="0.29" height="16.5"/><rect class="cls-23" x="91.78" y="50.32" width="0.29" height="16.5"/><rect class="cls-24" x="92.07" y="50.32" width="0.29" height="16.5"/><rect class="cls-25" x="92.37" y="50.32" width="0.29" height="16.5"/><rect class="cls-26" x="92.66" y="50.32" width="0.29" height="16.5"/><rect class="cls-27" x="92.96" y="50.32" width="0.29" height="16.5"/><rect class="cls-28" x="93.25" y="50.32" width="0.29" height="16.5"/><rect class="cls-28" x="93.54" y="50.32" width="0.29" height="16.5"/><rect class="cls-29" x="93.84" y="50.32" width="0.29" height="16.5"/><rect class="cls-30" x="94.13" y="50.32" width="0.29" height="16.5"/><rect class="cls-31" x="94.43" y="50.32" width="0.29" height="16.5"/><rect class="cls-32" x="94.72" y="50.32" width="0.29" height="16.5"/><rect class="cls-33" x="95.02" y="50.32" width="0.29" height="16.5"/><rect class="cls-34" x="95.31" y="50.32" width="0.29" height="16.5"/><rect class="cls-34" x="95.6" y="50.32" width="0.29" height="16.5"/><rect class="cls-35" x="95.9" y="50.32" width="0.29" height="16.5"/><rect class="cls-36" x="96.19" y="50.32" width="0.29" height="16.5"/><rect class="cls-37" x="96.49" y="50.32" width="0.29" height="16.5"/><rect class="cls-38" x="96.78" y="50.32" width="0.29" height="16.5"/><rect class="cls-39" x="97.07" y="50.32" width="0.29" height="16.5"/><rect class="cls-40" x="97.37" y="50.32" width="0.29" height="16.5"/><rect class="cls-41" x="97.66" y="50.32" width="0.29" height="16.5"/><rect class="cls-42" x="97.96" y="50.32" width="0.29" height="16.5"/><rect class="cls-43" x="98.25" y="50.32" width="0.29" height="16.5"/><rect class="cls-44" x="98.54" y="50.32" width="0.29" height="16.5"/><rect class="cls-45" x="98.84" y="50.32" width="0.29" height="16.5"/><rect class="cls-45" x="99.13" y="50.32" width="0.29" height="16.5"/><rect class="cls-46" x="99.43" y="50.32" width="0.29" height="16.5"/><rect class="cls-47" x="99.72" y="50.32" width="0.29" height="16.5"/><rect class="cls-48" x="100.02" y="50.32" width="0.29" height="16.5"/><rect class="cls-48" x="100.31" y="50.32" width="0.29" height="16.5"/><rect class="cls-49" x="100.6" y="50.32" width="0.29" height="16.5"/><rect class="cls-50" x="100.9" y="50.32" width="0.29" height="16.5"/><rect class="cls-51" x="101.19" y="50.32" width="0.29" height="16.5"/><rect class="cls-52" x="101.49" y="50.32" width="0.29" height="16.5"/><rect class="cls-52" x="101.78" y="50.32" width="0.29" height="16.5"/><rect class="cls-53" x="102.07" y="50.32" width="0.29" height="16.5"/><rect class="cls-54" x="102.37" y="50.32" width="0.29" height="16.5"/><rect class="cls-55" x="102.66" y="50.32" width="0.29" height="16.5"/><rect class="cls-55" x="102.96" y="50.32" width="0.29" height="16.5"/><rect class="cls-56" x="103.25" y="50.32" width="0.29" height="16.5"/><rect class="cls-57" x="103.54" y="50.32" width="0.29" height="16.5"/><rect class="cls-58" x="103.84" y="50.32" width="0.29" height="16.5"/><rect class="cls-58" x="104.13" y="50.32" width="0.29" height="16.5"/><rect class="cls-59" x="104.43" y="50.32" width="0.29" height="16.5"/><rect class="cls-60" x="104.72" y="50.32" width="0.29" height="16.5"/><rect class="cls-61" x="105.02" y="50.32" width="0.29" height="16.5"/><rect class="cls-61" x="105.31" y="50.32" width="0.29" height="16.5"/><rect class="cls-62" x="105.6" y="50.32" width="0.29" height="16.5"/><rect class="cls-63" x="105.9" y="50.32" width="0.29" height="16.5"/><rect class="cls-64" x="106.19" y="50.32" width="0.29" height="16.5"/><rect class="cls-64" x="106.49" y="50.32" width="0.29" height="16.5"/><rect class="cls-65" x="106.78" y="50.32" width="0.29" height="16.5"/><rect class="cls-66" x="107.07" y="50.32" width="0.29" height="16.5"/><rect class="cls-67" x="107.37" y="50.32" width="0.29" height="16.5"/><rect class="cls-67" x="107.66" y="50.32" width="0.29" height="16.5"/><rect class="cls-68" x="107.96" y="50.32" width="0.29" height="16.5"/><rect class="cls-69" x="108.25" y="50.32" width="0.29" height="16.5"/><rect class="cls-70" x="108.54" y="50.32" width="0.29" height="16.5"/><rect class="cls-70" x="108.84" y="50.32" width="0.29" height="16.5"/><rect class="cls-71" x="109.13" y="50.32" width="0.29" height="16.5"/><rect class="cls-72" x="109.43" y="50.32" width="0.29" height="16.5"/><rect class="cls-73" x="109.72" y="50.32" width="0.29" height="16.5"/><rect class="cls-73" x="110.02" y="50.32" width="0.29" height="16.5"/><rect class="cls-74" x="110.31" y="50.32" width="0.29" height="16.5"/><rect class="cls-75" x="110.6" y="50.32" width="0.29" height="16.5"/><rect class="cls-75" x="110.9" y="50.32" width="0.29" height="16.5"/><rect class="cls-76" x="111.19" y="50.32" width="0.29" height="16.5"/><rect class="cls-77" x="111.49" y="50.32" width="0.29" height="16.5"/><rect class="cls-78" x="111.78" y="50.32" width="0.29" height="16.5"/><rect class="cls-78" x="112.07" y="50.32" width="0.29" height="16.5"/><rect class="cls-79" x="112.37" y="50.32" width="0.29" height="16.5"/><rect class="cls-80" x="112.66" y="50.32" width="0.29" height="16.5"/><rect class="cls-80" x="112.96" y="50.32" width="0.29" height="16.5"/><rect class="cls-81" x="113.25" y="50.32" width="0.29" height="16.5"/><rect class="cls-82" x="113.54" y="50.32" width="0.29" height="16.5"/><rect class="cls-83" x="113.84" y="50.32" width="0.29" height="16.5"/><rect class="cls-83" x="114.13" y="50.32" width="0.29" height="16.5"/><rect class="cls-84" x="114.43" y="50.32" width="0.29" height="16.5"/><rect class="cls-85" x="114.72" y="50.32" width="0.29" height="16.5"/><rect class="cls-85" x="115.02" y="50.32" width="0.29" height="16.5"/><rect class="cls-86" x="115.31" y="50.32" width="0.29" height="16.5"/><rect class="cls-87" x="115.6" y="50.32" width="0.29" height="16.5"/><rect class="cls-87" x="115.9" y="50.32" width="0.29" height="16.5"/><rect class="cls-88" x="116.19" y="50.32" width="0.29" height="16.5"/><rect class="cls-89" x="116.49" y="50.32" width="0.29" height="16.5"/><rect class="cls-90" x="116.78" y="50.32" width="0.29" height="16.5"/><rect class="cls-90" x="117.07" y="50.32" width="0.29" height="16.5"/><rect class="cls-91" x="117.37" y="50.32" width="0.29" height="16.5"/><rect class="cls-92" x="117.66" y="50.32" width="0.29" height="16.5"/><rect class="cls-92" x="117.96" y="50.32" width="0.29" height="16.5"/><rect class="cls-93" x="118.25" y="50.32" width="0.29" height="16.5"/><rect class="cls-94" x="118.54" y="50.32" width="0.29" height="16.5"/><rect class="cls-94" x="118.84" y="50.32" width="0.29" height="16.5"/><rect class="cls-95" x="119.13" y="50.32" width="0.29" height="16.5"/><rect class="cls-96" x="119.43" y="50.32" width="0.29" height="16.5"/><rect class="cls-97" x="119.72" y="50.32" width="0.29" height="16.5"/><rect class="cls-97" x="120.02" y="50.32" width="0.29" height="16.5"/><rect class="cls-98" x="120.31" y="50.32" width="0.29" height="16.5"/><rect class="cls-99" x="120.6" y="50.32" width="0.29" height="16.5"/><rect class="cls-99" x="120.9" y="50.32" width="0.29" height="16.5"/><rect class="cls-100" x="121.19" y="50.32" width="0.29" height="16.5"/><rect class="cls-101" x="121.49" y="50.32" width="0.29" height="16.5"/><rect class="cls-101" x="121.78" y="50.32" width="0.29" height="16.5"/><rect class="cls-102" x="122.07" y="50.32" width="0.29" height="16.5"/><rect class="cls-103" x="122.37" y="50.32" width="0.29" height="16.5"/><rect class="cls-104" x="122.66" y="50.32" width="0.29" height="16.5"/><rect class="cls-104" x="122.96" y="50.32" width="0.29" height="16.5"/><rect class="cls-105" x="123.25" y="50.32" width="0.29" height="16.5"/><rect class="cls-106" x="123.54" y="50.32" width="0.29" height="16.5"/><rect class="cls-107" x="123.84" y="50.32" width="0.29" height="16.5"/><rect class="cls-108" x="124.13" y="50.32" width="0.29" height="16.5"/><rect class="cls-109" x="124.43" y="50.32" width="0.29" height="16.5"/><rect class="cls-109" x="124.72" y="50.32" width="0.29" height="16.5"/><rect class="cls-110" x="125.02" y="50.32" width="0.29" height="16.5"/><rect class="cls-111" x="125.31" y="50.32" width="0.29" height="16.5"/><rect class="cls-112" x="125.6" y="50.32" width="0.29" height="16.5"/><rect class="cls-112" x="125.9" y="50.32" width="0.29" height="16.5"/><rect class="cls-113" x="126.19" y="50.32" width="0.29" height="16.5"/><rect class="cls-114" x="126.49" y="50.32" width="0.29" height="16.5"/><rect class="cls-114" x="126.78" y="50.32" width="0.29" height="16.5"/><rect class="cls-115" x="127.07" y="50.32" width="0.29" height="16.5"/><rect class="cls-116" x="127.37" y="50.32" width="0.29" height="16.5"/><rect class="cls-117" x="127.66" y="50.32" width="0.29" height="16.5"/><rect class="cls-117" x="127.96" y="50.32" width="0.29" height="16.5"/><rect class="cls-118" x="128.25" y="50.32" width="0.29" height="16.5"/><rect class="cls-119" x="128.54" y="50.32" width="0.29" height="16.5"/><rect class="cls-119" x="128.84" y="50.32" width="0.29" height="16.5"/><rect class="cls-120" x="129.13" y="50.32" width="0.29" height="16.5"/><rect class="cls-121" x="129.43" y="50.32" width="0.29" height="16.5"/><rect class="cls-122" x="129.72" y="50.32" width="0.29" height="16.5"/><rect class="cls-122" x="130.02" y="50.32" width="0.29" height="16.5"/><rect class="cls-123" x="130.31" y="50.32" width="0.29" height="16.5"/><rect class="cls-124" x="130.6" y="50.32" width="0.29" height="16.5"/><rect class="cls-125" x="130.9" y="50.32" width="0.29" height="16.5"/><rect class="cls-125" x="131.19" y="50.32" width="0.29" height="16.5"/><rect class="cls-126" x="131.49" y="50.32" width="0.29" height="16.5"/><rect class="cls-127" x="131.78" y="50.32" width="0.29" height="16.5"/><rect class="cls-127" x="132.07" y="50.32" width="0.29" height="16.5"/><rect class="cls-128" x="132.37" y="50.32" width="0.29" height="16.5"/><rect class="cls-129" x="132.66" y="50.32" width="0.29" height="16.5"/><rect class="cls-130" x="132.96" y="50.32" width="0.29" height="16.5"/><rect class="cls-130" x="133.25" y="50.32" width="0.29" height="16.5"/><rect class="cls-131" x="133.54" y="50.32" width="0.29" height="16.5"/><rect class="cls-132" x="133.84" y="50.32" width="0.29" height="16.5"/><rect class="cls-133" x="134.13" y="50.32" width="0.29" height="16.5"/><rect class="cls-133" x="134.43" y="50.32" width="0.29" height="16.5"/><rect class="cls-134" x="134.72" y="50.32" width="0.29" height="16.5"/><rect class="cls-135" x="135.02" y="50.32" width="0.29" height="16.5"/><rect class="cls-136" x="135.31" y="50.32" width="0.29" height="16.5"/><rect class="cls-136" x="135.6" y="50.32" width="0.29" height="16.5"/><rect class="cls-137" x="135.9" y="50.32" width="0.29" height="16.5"/><rect class="cls-138" x="136.19" y="50.32" width="0.29" height="16.5"/><rect class="cls-139" x="136.49" y="50.32" width="0.29" height="16.5"/><rect class="cls-139" x="136.78" y="50.32" width="0.29" height="16.5"/><rect class="cls-140" x="137.07" y="50.32" width="0.29" height="16.5"/><rect class="cls-141" x="137.37" y="50.32" width="0.29" height="16.5"/><rect class="cls-142" x="137.66" y="50.32" width="0.29" height="16.5"/><rect class="cls-143" x="137.96" y="50.32" width="0.29" height="16.5"/><rect class="cls-144" x="138.25" y="50.32" width="0.29" height="16.5"/><rect class="cls-145" x="138.54" y="50.32" width="0.29" height="16.5"/><rect class="cls-146" x="138.84" y="50.32" width="0.29" height="16.5"/><rect class="cls-147" x="139.13" y="50.32" width="0.29" height="16.5"/><rect class="cls-147" x="139.43" y="50.32" width="0.29" height="16.5"/><rect class="cls-148" x="139.72" y="50.32" width="0.29" height="16.5"/><rect class="cls-149" x="140.02" y="50.32" width="0.29" height="16.5"/><rect class="cls-150" x="140.31" y="50.32" width="0.29" height="16.5"/><rect class="cls-150" x="140.6" y="50.32" width="0.29" height="16.5"/><rect class="cls-151" x="140.9" y="50.32" width="0.29" height="16.5"/><rect class="cls-152" x="141.19" y="50.32" width="0.29" height="16.5"/><rect class="cls-153" x="141.49" y="50.32" width="0.29" height="16.5"/><rect class="cls-153" x="141.78" y="50.32" width="0.29" height="16.5"/><rect class="cls-154" x="142.07" y="50.32" width="0.29" height="16.5"/><rect class="cls-155" x="142.37" y="50.32" width="0.29" height="16.5"/><rect class="cls-156" x="142.66" y="50.32" width="0.29" height="16.5"/><rect class="cls-157" x="142.96" y="50.32" width="0.29" height="16.5"/><rect class="cls-157" x="143.25" y="50.32" width="0.29" height="16.5"/><rect class="cls-158" x="143.54" y="50.32" width="0.29" height="16.5"/><rect class="cls-159" x="143.84" y="50.32" width="0.29" height="16.5"/><rect class="cls-160" x="144.13" y="50.32" width="0.29" height="16.5"/><rect class="cls-160" x="144.43" y="50.32" width="0.29" height="16.5"/><rect class="cls-161" x="144.72" y="50.32" width="0.29" height="16.5"/><rect class="cls-162" x="145.02" y="50.32" width="0.29" height="16.5"/><rect class="cls-163" x="145.31" y="50.32" width="0.29" height="16.5"/><rect class="cls-164" x="145.6" y="50.32" width="0.29" height="16.5"/><rect class="cls-164" x="145.9" y="50.32" width="0.29" height="16.5"/><rect class="cls-165" x="146.19" y="50.32" width="0.29" height="16.5"/><rect class="cls-166" x="146.49" y="50.32" width="0.29" height="16.5"/><rect class="cls-167" x="146.78" y="50.32" width="0.29" height="16.5"/><rect class="cls-167" x="147.07" y="50.32" width="0.29" height="16.5"/><rect class="cls-168" x="147.37" y="50.32" width="0.29" height="16.5"/><rect class="cls-169" x="147.66" y="50.32" width="0.29" height="16.5"/><rect class="cls-170" x="147.96" y="50.32" width="0.29" height="16.5"/><rect class="cls-171" x="148.25" y="50.32" width="0.29" height="16.5"/><rect class="cls-171" x="148.54" y="50.32" width="0.29" height="16.5"/><rect class="cls-172" x="148.84" y="50.32" width="0.29" height="16.5"/><rect class="cls-173" x="149.13" y="50.32" width="0.29" height="16.5"/><rect class="cls-174" x="149.43" y="50.32" width="0.29" height="16.5"/><rect class="cls-175" x="149.72" y="50.32" width="0.29" height="16.5"/><rect class="cls-175" x="150.02" y="50.32" width="0.29" height="16.5"/><rect class="cls-176" x="150.31" y="50.32" width="0.29" height="16.5"/><rect class="cls-177" x="150.6" y="50.32" width="0.29" height="16.5"/><rect class="cls-178" x="150.9" y="50.32" width="0.29" height="16.5"/><rect class="cls-179" x="151.19" y="50.32" width="0.29" height="16.5"/><rect class="cls-179" x="151.49" y="50.32" width="0.29" height="16.5"/><rect class="cls-180" x="151.78" y="50.32" width="0.29" height="16.5"/><rect class="cls-181" x="152.07" y="50.32" width="0.29" height="16.5"/><rect class="cls-182" x="152.37" y="50.32" width="0.29" height="16.5"/><rect class="cls-183" x="152.66" y="50.32" width="0.29" height="16.5"/><rect class="cls-184" x="152.96" y="50.32" width="0.29" height="16.5"/><rect class="cls-184" x="153.25" y="50.32" width="0.29" height="16.5"/><rect class="cls-185" x="153.54" y="50.32" width="0.29" height="16.5"/><rect class="cls-186" x="153.84" y="50.32" width="0.29" height="16.5"/><rect class="cls-187" x="154.13" y="50.32" width="0.29" height="16.5"/><rect class="cls-188" x="154.43" y="50.32" width="0.29" height="16.5"/><rect class="cls-189" x="154.72" y="50.32" width="0.29" height="16.5"/><rect class="cls-190" x="155.02" y="50.32" width="0.29" height="16.5"/><rect class="cls-191" x="155.31" y="50.32" width="0.29" height="16.5"/><rect class="cls-192" x="155.6" y="50.32" width="0.29" height="16.5"/><rect class="cls-193" x="155.9" y="50.32" width="0.29" height="16.5"/><rect class="cls-194" x="156.19" y="50.32" width="0.29" height="16.5"/><rect class="cls-195" x="156.49" y="50.32" width="0.29" height="16.5"/><rect class="cls-196" x="156.78" y="50.32" width="0.29" height="16.5"/><rect class="cls-197" x="157.07" y="50.32" width="0.29" height="16.5"/><rect class="cls-197" x="157.37" y="50.32" width="0.29" height="16.5"/><rect class="cls-198" x="157.66" y="50.32" width="0.29" height="16.5"/><rect class="cls-199" x="157.96" y="50.32" width="0.29" height="16.5"/><rect class="cls-200" x="158.25" y="50.32" width="0.29" height="16.5"/><rect class="cls-201" x="158.54" y="50.32" width="0.29" height="16.5"/><rect class="cls-202" x="158.84" y="50.32" width="0.29" height="16.5"/><rect class="cls-203" x="159.13" y="50.32" width="0.29" height="16.5"/><rect class="cls-204" x="159.43" y="50.32" width="0.29" height="16.5"/><rect class="cls-205" x="159.72" y="50.32" width="0.29" height="16.5"/><rect class="cls-206" x="160.02" y="50.32" width="0.29" height="16.5"/><rect class="cls-207" x="160.31" y="50.32" width="0.29" height="16.5"/><rect class="cls-208" x="160.6" y="50.32" width="0.29" height="16.5"/><rect class="cls-209" x="160.9" y="50.32" width="0.29" height="16.5"/><rect class="cls-210" x="161.19" y="50.32" width="0.29" height="16.5"/><rect class="cls-211" x="161.49" y="50.32" width="0.29" height="16.5"/><path class="cls-211" d="M350.12,451.35v0Z" transform="translate(-188.34 -384.53)"/></g><polygon class="cls-212" points="98.02 56.29 96.58 59.41 95.17 56.29 94.09 56.29 94.09 60.79 95.08 60.79 95.08 58.11 96.3 60.79 96.87 60.79 98.09 58.12 98.09 60.79 99.08 60.79 99.08 56.29 98.02 56.29"/><path class="cls-212" d="M290.27,443.65l.58-1.78.57,1.78Zm1.69,1.67H293l-1.62-4.5h-1.11l-1.62,4.5h1.06l.28-.84h1.68Z" transform="translate(-188.34 -384.53)"/><polygon class="cls-212" points="108.73 60.79 110.06 60.79 107.89 58.3 109.83 56.29 108.56 56.29 107.08 57.88 106.91 57.88 106.91 56.29 105.92 56.29 105.92 60.79 106.91 60.79 106.91 58.74 107.06 58.74 108.73 60.79"/><polygon class="cls-212" points="113.98 57.16 113.98 56.29 111.28 56.29 111.28 60.79 113.98 60.79 113.98 59.92 112.27 59.92 112.27 58.98 113.74 58.98 113.74 58.11 112.27 58.11 112.27 57.16 113.98 57.16"/><rect class="cls-212" x="118.37" y="56.29" width="0.99" height="4.5"/><polygon class="cls-212" points="123.95 56.29 120.7 56.29 120.7 57.17 121.84 57.17 121.84 60.79 122.82 60.79 122.82 57.17 123.95 57.17 123.95 56.29"/><polygon class="cls-212" points="130.7 57.16 130.7 56.29 128 56.29 128 60.79 130.7 60.79 130.7 59.92 128.99 59.92 128.99 58.98 130.46 58.98 130.46 58.11 128.99 58.11 128.99 57.16 130.7 57.16"/><path class="cls-212" d="M321.75,443.65l.58-1.78.58,1.78Zm1.7,1.67h1.06l-1.62-4.5h-1.11l-1.62,4.5h1l.28-.84h1.68Z" transform="translate(-188.34 -384.53)"/><path class="cls-212" d="M327.14,445.38a1.4,1.4,0,0,0,1.55-1.33c0-1.67-2.07-1.25-2.07-2,0-.26.2-.38.44-.38a1,1,0,0,1,.73.39l.66-.63a1.85,1.85,0,0,0-1.39-.64,1.33,1.33,0,0,0-1.44,1.33c0,1.53,2.08,1.16,2.08,2,0,.25-.21.41-.55.41a1,1,0,0,1-.9-.58l-.82.51A1.91,1.91,0,0,0,327.14,445.38Z" transform="translate(-188.34 -384.53)"/><polygon class="cls-212" points="145.46 56.29 144.36 56.29 143.4 57.82 142.44 56.29 141.32 56.29 142.91 58.68 142.91 60.79 143.9 60.79 143.9 58.67 145.46 56.29"/></svg>